<svg width="556" height="182" viewBox="0 0 556 182" fill="none" xmlns="http://www.w3.org/2000/svg">
<path d="M0 20C0 8.9543 8.9543 0 20 0H246C257.046 0 266 8.95431 266 20V162C266 173.046 257.046 182 246 182H20C8.95431 182 0 173.046 0 162V20Z" fill="white"/>
<path d="M0.5 20C0.5 9.23045 9.23045 0.5 20 0.5H246C256.77 0.5 265.5 9.23045 265.5 20V162C265.5 172.77 256.77 181.5 246 181.5H20C9.23045 181.5 0.5 172.77 0.5 162V20Z" stroke="#DADADF" stroke-opacity="0.666667"/>
<path d="M19.024 84.352V87.616H22.864V89.104H19.024V92.512H23.344V94H17.2V82.864H23.344V84.352H19.024ZM24.9826 89.552C24.9826 88.6667 25.164 87.8827 25.5266 87.2C25.9 86.5173 26.4013 85.9893 27.0306 85.616C27.6706 85.232 28.38 85.04 29.1586 85.04C29.7346 85.04 30.3 85.168 30.8546 85.424C31.42 85.6693 31.868 86 32.1986 86.416V82.16H34.0386V94H32.1986V92.672C31.9 93.0987 31.484 93.4507 30.9506 93.728C30.428 94.0053 29.8253 94.144 29.1426 94.144C28.3746 94.144 27.6706 93.952 27.0306 93.568C26.4013 93.1733 25.9 92.6293 25.5266 91.936C25.164 91.232 24.9826 90.4373 24.9826 89.552ZM32.1986 89.584C32.1986 88.976 32.0706 88.448 31.8146 88C31.5693 87.552 31.244 87.2107 30.8386 86.976C30.4333 86.7413 29.996 86.624 29.5266 86.624C29.0573 86.624 28.62 86.7413 28.2146 86.976C27.8093 87.2 27.4786 87.536 27.2226 87.984C26.9773 88.4213 26.8546 88.944 26.8546 89.552C26.8546 90.16 26.9773 90.6933 27.2226 91.152C27.4786 91.6107 27.8093 91.9627 28.2146 92.208C28.6306 92.4427 29.068 92.56 29.5266 92.56C29.996 92.56 30.4333 92.4427 30.8386 92.208C31.244 91.9733 31.5693 91.632 31.8146 91.184C32.0706 90.7253 32.1986 90.192 32.1986 89.584ZM44.4184 85.184V94H42.5944V92.96C42.3064 93.3227 41.9277 93.6107 41.4584 93.824C40.9997 94.0267 40.509 94.128 39.9864 94.128C39.293 94.128 38.669 93.984 38.1144 93.696C37.5704 93.408 37.1384 92.9813 36.8184 92.416C36.509 91.8507 36.3544 91.168 36.3544 90.368V85.184H38.1624V90.096C38.1624 90.8853 38.3597 91.4933 38.7544 91.92C39.149 92.336 39.6877 92.544 40.3704 92.544C41.053 92.544 41.5917 92.336 41.9864 91.92C42.3917 91.4933 42.5944 90.8853 42.5944 90.096V85.184H44.4184ZM46.217 89.584C46.217 88.6773 46.3983 87.8827 46.761 87.2C47.1343 86.5067 47.6463 85.9733 48.297 85.6C48.9477 85.2267 49.6943 85.04 50.537 85.04C51.6037 85.04 52.4837 85.296 53.177 85.808C53.881 86.3093 54.3557 87.0293 54.601 87.968H52.633C52.473 87.5307 52.217 87.1893 51.865 86.944C51.513 86.6987 51.0703 86.576 50.537 86.576C49.7903 86.576 49.193 86.8427 48.745 87.376C48.3077 87.8987 48.089 88.6347 48.089 89.584C48.089 90.5333 48.3077 91.2747 48.745 91.808C49.193 92.3413 49.7903 92.608 50.537 92.608C51.593 92.608 52.2917 92.144 52.633 91.216H54.601C54.345 92.112 53.865 92.8267 53.161 93.36C52.457 93.8827 51.5823 94.144 50.537 94.144C49.6943 94.144 48.9477 93.9573 48.297 93.584C47.6463 93.2 47.1343 92.6667 46.761 91.984C46.3983 91.2907 46.217 90.4907 46.217 89.584ZM55.8108 89.552C55.8108 88.6667 55.9921 87.8827 56.3548 87.2C56.7281 86.5173 57.2294 85.9893 57.8588 85.616C58.4988 85.232 59.2028 85.04 59.9708 85.04C60.6641 85.04 61.2668 85.1787 61.7788 85.456C62.3014 85.7227 62.7174 86.0587 63.0268 86.464V85.184H64.8668V94H63.0268V92.688C62.7174 93.104 62.2961 93.4507 61.7628 93.728C61.2294 94.0053 60.6214 94.144 59.9388 94.144C59.1814 94.144 58.4881 93.952 57.8588 93.568C57.2294 93.1733 56.7281 92.6293 56.3548 91.936C55.9921 91.232 55.8108 90.4373 55.8108 89.552ZM63.0268 89.584C63.0268 88.976 62.8988 88.448 62.6428 88C62.3974 87.552 62.0721 87.2107 61.6668 86.976C61.2614 86.7413 60.8241 86.624 60.3548 86.624C59.8854 86.624 59.4481 86.7413 59.0428 86.976C58.6374 87.2 58.3068 87.536 58.0508 87.984C57.8054 88.4213 57.6828 88.944 57.6828 89.552C57.6828 90.16 57.8054 90.6933 58.0508 91.152C58.3068 91.6107 58.6374 91.9627 59.0428 92.208C59.4588 92.4427 59.8961 92.56 60.3548 92.56C60.8241 92.56 61.2614 92.4427 61.6668 92.208C62.0721 91.9733 62.3974 91.632 62.6428 91.184C62.8988 90.7253 63.0268 90.192 63.0268 89.584ZM69.3905 86.672V91.552C69.3905 91.8827 69.4652 92.1227 69.6145 92.272C69.7745 92.4107 70.0412 92.48 70.4145 92.48H71.5345V94H70.0945C69.2732 94 68.6438 93.808 68.2065 93.424C67.7692 93.04 67.5505 92.416 67.5505 91.552V86.672H66.5105V85.184H67.5505V82.992H69.3905V85.184H71.5345V86.672H69.3905ZM74.1436 84.016C73.813 84.016 73.5356 83.904 73.3116 83.68C73.0876 83.456 72.9756 83.1787 72.9756 82.848C72.9756 82.5173 73.0876 82.24 73.3116 82.016C73.5356 81.792 73.813 81.68 74.1436 81.68C74.4636 81.68 74.7356 81.792 74.9596 82.016C75.1836 82.24 75.2956 82.5173 75.2956 82.848C75.2956 83.1787 75.1836 83.456 74.9596 83.68C74.7356 83.904 74.4636 84.016 74.1436 84.016ZM75.0396 85.184V94H73.2156V85.184H75.0396ZM81.2584 94.144C80.4264 94.144 79.6744 93.9573 79.0024 93.584C78.3304 93.2 77.8024 92.6667 77.4184 91.984C77.0344 91.2907 76.8424 90.4907 76.8424 89.584C76.8424 88.688 77.0397 87.8933 77.4344 87.2C77.829 86.5067 78.3677 85.9733 79.0504 85.6C79.733 85.2267 80.4957 85.04 81.3384 85.04C82.181 85.04 82.9437 85.2267 83.6264 85.6C84.309 85.9733 84.8477 86.5067 85.2424 87.2C85.637 87.8933 85.8344 88.688 85.8344 89.584C85.8344 90.48 85.6317 91.2747 85.2264 91.968C84.821 92.6613 84.2664 93.2 83.5624 93.584C82.869 93.9573 82.101 94.144 81.2584 94.144ZM81.2584 92.56C81.7277 92.56 82.165 92.448 82.5704 92.224C82.9864 92 83.3224 91.664 83.5784 91.216C83.8344 90.768 83.9624 90.224 83.9624 89.584C83.9624 88.944 83.8397 88.4053 83.5944 87.968C83.349 87.52 83.0237 87.184 82.6184 86.96C82.213 86.736 81.7757 86.624 81.3064 86.624C80.837 86.624 80.3997 86.736 79.9944 86.96C79.5997 87.184 79.285 87.52 79.0504 87.968C78.8157 88.4053 78.6984 88.944 78.6984 89.584C78.6984 90.5333 78.9384 91.2693 79.4184 91.792C79.909 92.304 80.5224 92.56 81.2584 92.56ZM92.0855 85.04C92.7788 85.04 93.3975 85.184 93.9415 85.472C94.4962 85.76 94.9282 86.1867 95.2375 86.752C95.5468 87.3173 95.7015 88 95.7015 88.8V94H93.8935V89.072C93.8935 88.2827 93.6962 87.68 93.3015 87.264C92.9068 86.8373 92.3682 86.624 91.6855 86.624C91.0028 86.624 90.4588 86.8373 90.0535 87.264C89.6588 87.68 89.4615 88.2827 89.4615 89.072V94H87.6375V85.184H89.4615V86.192C89.7602 85.8293 90.1388 85.5467 90.5975 85.344C91.0668 85.1413 91.5628 85.04 92.0855 85.04Z" fill="#2F2F2F"/>
<path d="M27.34 121.98C27.34 122.673 27.16 123.327 26.8 123.94C26.4533 124.54 25.9333 125.04 25.24 125.44C24.56 125.827 23.7533 126.053 22.82 126.12V127.74H21.54V126.1C20.2067 125.98 19.1333 125.58 18.32 124.9C17.5067 124.207 17.0867 123.273 17.06 122.1H20.06C20.14 123.06 20.6333 123.64 21.54 123.84V120.02C20.58 119.78 19.8067 119.54 19.22 119.3C18.6333 119.06 18.1267 118.673 17.7 118.14C17.2733 117.607 17.06 116.88 17.06 115.96C17.06 114.8 17.4733 113.853 18.3 113.12C19.14 112.387 20.22 111.967 21.54 111.86V110.24H22.82V111.86C24.1 111.967 25.12 112.353 25.88 113.02C26.6533 113.687 27.0867 114.607 27.18 115.78H24.16C24.12 115.393 23.98 115.06 23.74 114.78C23.5133 114.487 23.2067 114.28 22.82 114.16V117.94C23.82 118.193 24.6067 118.44 25.18 118.68C25.7667 118.907 26.2733 119.287 26.7 119.82C27.1267 120.34 27.34 121.06 27.34 121.98ZM19.98 115.82C19.98 116.26 20.1133 116.62 20.38 116.9C20.6467 117.167 21.0333 117.387 21.54 117.56V114.1C21.06 114.167 20.68 114.347 20.4 114.64C20.12 114.933 19.98 115.327 19.98 115.82ZM22.82 123.88C23.3267 123.787 23.72 123.58 24 123.26C24.2933 122.94 24.44 122.553 24.44 122.1C24.44 121.66 24.3 121.307 24.02 121.04C23.74 120.773 23.34 120.553 22.82 120.38V123.88ZM30.1859 115.26C30.2526 113.927 30.7193 112.9 31.5859 112.18C32.4659 111.447 33.6193 111.08 35.0459 111.08C36.0193 111.08 36.8526 111.253 37.5459 111.6C38.2393 111.933 38.7593 112.393 39.1059 112.98C39.4659 113.553 39.6459 114.207 39.6459 114.94C39.6459 115.78 39.4259 116.493 38.9859 117.08C38.5593 117.653 38.0459 118.04 37.4459 118.24V118.32C38.2193 118.56 38.8193 118.987 39.2459 119.6C39.6859 120.213 39.9059 121 39.9059 121.96C39.9059 122.76 39.7193 123.473 39.3459 124.1C38.9859 124.727 38.4459 125.22 37.7259 125.58C37.0193 125.927 36.1659 126.1 35.1659 126.1C33.6593 126.1 32.4326 125.72 31.4859 124.96C30.5393 124.2 30.0393 123.08 29.9859 121.6H32.7059C32.7326 122.253 32.9526 122.78 33.3659 123.18C33.7926 123.567 34.3726 123.76 35.1059 123.76C35.7859 123.76 36.3059 123.573 36.6659 123.2C37.0393 122.813 37.2259 122.32 37.2259 121.72C37.2259 120.92 36.9726 120.347 36.4659 120C35.9593 119.653 35.1726 119.48 34.1059 119.48H33.5259V117.18H34.1059C35.9993 117.18 36.9459 116.547 36.9459 115.28C36.9459 114.707 36.7726 114.26 36.4259 113.94C36.0926 113.62 35.6059 113.46 34.9659 113.46C34.3393 113.46 33.8526 113.633 33.5059 113.98C33.1726 114.313 32.9793 114.74 32.9259 115.26H30.1859ZM49.6786 115.06C49.5453 114.5 49.3119 114.08 48.9786 113.8C48.6586 113.52 48.1919 113.38 47.5786 113.38C46.6586 113.38 45.9786 113.753 45.5386 114.5C45.1119 115.233 44.8919 116.433 44.8786 118.1C45.1986 117.567 45.6653 117.153 46.2786 116.86C46.8919 116.553 47.5586 116.4 48.2786 116.4C49.1453 116.4 49.9119 116.587 50.5786 116.96C51.2453 117.333 51.7653 117.88 52.1386 118.6C52.5119 119.307 52.6986 120.16 52.6986 121.16C52.6986 122.107 52.5053 122.953 52.1186 123.7C51.7453 124.433 51.1919 125.007 50.4586 125.42C49.7253 125.833 48.8519 126.04 47.8386 126.04C46.4519 126.04 45.3586 125.733 44.5586 125.12C43.7719 124.507 43.2186 123.653 42.8986 122.56C42.5919 121.453 42.4386 120.093 42.4386 118.48C42.4386 116.04 42.8586 114.2 43.6986 112.96C44.5386 111.707 45.8653 111.08 47.6786 111.08C49.0786 111.08 50.1653 111.46 50.9386 112.22C51.7119 112.98 52.1586 113.927 52.2786 115.06H49.6786ZM47.6386 118.7C46.9319 118.7 46.3386 118.907 45.8586 119.32C45.3786 119.733 45.1386 120.333 45.1386 121.12C45.1386 121.907 45.3586 122.527 45.7986 122.98C46.2519 123.433 46.8853 123.66 47.6986 123.66C48.4186 123.66 48.9853 123.44 49.3986 123C49.8253 122.56 50.0386 121.967 50.0386 121.22C50.0386 120.447 49.8319 119.833 49.4186 119.38C49.0186 118.927 48.4253 118.7 47.6386 118.7ZM58.2916 123.06L55.9516 128.68H54.1516L55.4516 123.06H58.2916ZM59.9897 118.52C59.9897 116.213 60.403 114.407 61.2297 113.1C62.0697 111.793 63.4564 111.14 65.3897 111.14C67.323 111.14 68.703 111.793 69.5297 113.1C70.3697 114.407 70.7897 116.213 70.7897 118.52C70.7897 120.84 70.3697 122.66 69.5297 123.98C68.703 125.3 67.323 125.96 65.3897 125.96C63.4564 125.96 62.0697 125.3 61.2297 123.98C60.403 122.66 59.9897 120.84 59.9897 118.52ZM68.0297 118.52C68.0297 117.533 67.963 116.707 67.8297 116.04C67.7097 115.36 67.4564 114.807 67.0697 114.38C66.6964 113.953 66.1364 113.74 65.3897 113.74C64.643 113.74 64.0764 113.953 63.6897 114.38C63.3164 114.807 63.063 115.36 62.9297 116.04C62.8097 116.707 62.7497 117.533 62.7497 118.52C62.7497 119.533 62.8097 120.387 62.9297 121.08C63.0497 121.76 63.303 122.313 63.6897 122.74C64.0764 123.153 64.643 123.36 65.3897 123.36C66.1364 123.36 66.703 123.153 67.0897 122.74C67.4764 122.313 67.7297 121.76 67.8497 121.08C67.9697 120.387 68.0297 119.533 68.0297 118.52ZM72.9194 118.52C72.9194 116.213 73.3327 114.407 74.1594 113.1C74.9994 111.793 76.386 111.14 78.3194 111.14C80.2527 111.14 81.6327 111.793 82.4594 113.1C83.2994 114.407 83.7194 116.213 83.7194 118.52C83.7194 120.84 83.2994 122.66 82.4594 123.98C81.6327 125.3 80.2527 125.96 78.3194 125.96C76.386 125.96 74.9994 125.3 74.1594 123.98C73.3327 122.66 72.9194 120.84 72.9194 118.52ZM80.9594 118.52C80.9594 117.533 80.8927 116.707 80.7594 116.04C80.6394 115.36 80.386 114.807 79.9994 114.38C79.626 113.953 79.066 113.74 78.3194 113.74C77.5727 113.74 77.006 113.953 76.6194 114.38C76.246 114.807 75.9927 115.36 75.8594 116.04C75.7394 116.707 75.6794 117.533 75.6794 118.52C75.6794 119.533 75.7394 120.387 75.8594 121.08C75.9794 121.76 76.2327 122.313 76.6194 122.74C77.006 123.153 77.5727 123.36 78.3194 123.36C79.066 123.36 79.6327 123.153 80.0194 122.74C80.406 122.313 80.6594 121.76 80.7794 121.08C80.8994 120.387 80.9594 119.533 80.9594 118.52ZM85.8491 118.52C85.8491 116.213 86.2624 114.407 87.0891 113.1C87.9291 111.793 89.3157 111.14 91.2491 111.14C93.1824 111.14 94.5624 111.793 95.3891 113.1C96.2291 114.407 96.6491 116.213 96.6491 118.52C96.6491 120.84 96.2291 122.66 95.3891 123.98C94.5624 125.3 93.1824 125.96 91.2491 125.96C89.3157 125.96 87.9291 125.3 87.0891 123.98C86.2624 122.66 85.8491 120.84 85.8491 118.52ZM93.8891 118.52C93.8891 117.533 93.8224 116.707 93.6891 116.04C93.5691 115.36 93.3157 114.807 92.9291 114.38C92.5557 113.953 91.9957 113.74 91.2491 113.74C90.5024 113.74 89.9357 113.953 89.5491 114.38C89.1757 114.807 88.9224 115.36 88.7891 116.04C88.6691 116.707 88.6091 117.533 88.6091 118.52C88.6091 119.533 88.6691 120.387 88.7891 121.08C88.9091 121.76 89.1624 122.313 89.5491 122.74C89.9357 123.153 90.5024 123.36 91.2491 123.36C91.9957 123.36 92.5624 123.153 92.9491 122.74C93.3357 122.313 93.5891 121.76 93.7091 121.08C93.8291 120.387 93.8891 119.533 93.8891 118.52Z" fill="#2F2F2F"/>
<rect x="16" y="138" width="210" height="6" rx="3" fill="#EBF1F5"/>
<rect x="16" y="138" width="144.9" height="6" rx="3" fill="#0AC497"/>
<path d="M21.58 154.388C21.404 153.5 20.856 153.056 19.936 153.056C19.224 153.056 18.692 153.332 18.34 153.884C17.988 154.428 17.816 155.328 17.824 156.584C18.008 156.168 18.312 155.844 18.736 155.612C19.168 155.372 19.648 155.252 20.176 155.252C21 155.252 21.656 155.508 22.144 156.02C22.64 156.532 22.888 157.24 22.888 158.144C22.888 158.688 22.78 159.176 22.564 159.608C22.356 160.04 22.036 160.384 21.604 160.64C21.18 160.896 20.664 161.024 20.056 161.024C19.232 161.024 18.588 160.84 18.124 160.472C17.66 160.104 17.336 159.596 17.152 158.948C16.968 158.3 16.876 157.5 16.876 156.548C16.876 153.612 17.9 152.144 19.948 152.144C20.732 152.144 21.348 152.356 21.796 152.78C22.244 153.204 22.508 153.74 22.588 154.388H21.58ZM19.948 156.176C19.604 156.176 19.28 156.248 18.976 156.392C18.672 156.528 18.424 156.74 18.232 157.028C18.048 157.308 17.956 157.652 17.956 158.06C17.956 158.668 18.132 159.164 18.484 159.548C18.836 159.924 19.34 160.112 19.996 160.112C20.556 160.112 21 159.94 21.328 159.596C21.664 159.244 21.832 158.772 21.832 158.18C21.832 157.556 21.672 157.068 21.352 156.716C21.032 156.356 20.564 156.176 19.948 156.176ZM25.7652 158.672C25.8452 159.128 26.0292 159.48 26.3172 159.728C26.6132 159.976 27.0092 160.1 27.5052 160.1C28.1692 160.1 28.6572 159.84 28.9692 159.32C29.2892 158.8 29.4412 157.924 29.4252 156.692C29.2572 157.052 28.9772 157.336 28.5852 157.544C28.1932 157.744 27.7572 157.844 27.2772 157.844C26.7412 157.844 26.2612 157.736 25.8372 157.52C25.4212 157.296 25.0932 156.972 24.8532 156.548C24.6132 156.124 24.4932 155.612 24.4932 155.012C24.4932 154.156 24.7412 153.468 25.2372 152.948C25.7332 152.42 26.4372 152.156 27.3492 152.156C28.4692 152.156 29.2532 152.52 29.7012 153.248C30.1572 153.976 30.3852 155.06 30.3852 156.5C30.3852 157.508 30.2932 158.34 30.1092 158.996C29.9332 159.652 29.6292 160.152 29.1972 160.496C28.7732 160.84 28.1892 161.012 27.4452 161.012C26.6292 161.012 25.9932 160.792 25.5372 160.352C25.0812 159.912 24.8212 159.352 24.7572 158.672H25.7652ZM27.4572 156.92C27.9932 156.92 28.4332 156.756 28.7772 156.428C29.1212 156.092 29.2932 155.64 29.2932 155.072C29.2932 154.472 29.1252 153.988 28.7892 153.62C28.4532 153.252 27.9812 153.068 27.3732 153.068C26.8132 153.068 26.3652 153.244 26.0292 153.596C25.7012 153.948 25.5372 154.412 25.5372 154.988C25.5372 155.572 25.7012 156.04 26.0292 156.392C26.3572 156.744 26.8332 156.92 27.4572 156.92ZM31.6798 154.28C31.6798 153.736 31.8438 153.304 32.1718 152.984C32.4998 152.656 32.9198 152.492 33.4318 152.492C33.9438 152.492 34.3638 152.656 34.6918 152.984C35.0198 153.304 35.1838 153.736 35.1838 154.28C35.1838 154.832 35.0198 155.272 34.6918 155.6C34.3638 155.92 33.9438 156.08 33.4318 156.08C32.9198 156.08 32.4998 155.92 32.1718 155.6C31.8438 155.272 31.6798 154.832 31.6798 154.28ZM38.6878 152.624L33.8278 161H32.7478L37.6078 152.624H38.6878ZM33.4318 153.164C33.1598 153.164 32.9438 153.26 32.7838 153.452C32.6318 153.636 32.5558 153.912 32.5558 154.28C32.5558 154.648 32.6318 154.928 32.7838 155.12C32.9438 155.312 33.1598 155.408 33.4318 155.408C33.7038 155.408 33.9198 155.312 34.0798 155.12C34.2398 154.92 34.3198 154.64 34.3198 154.28C34.3198 153.912 34.2398 153.636 34.0798 153.452C33.9198 153.26 33.7038 153.164 33.4318 153.164ZM36.2758 159.344C36.2758 158.792 36.4398 158.356 36.7678 158.036C37.0958 157.708 37.5158 157.544 38.0278 157.544C38.5398 157.544 38.9558 157.708 39.2758 158.036C39.6038 158.356 39.7678 158.792 39.7678 159.344C39.7678 159.888 39.6038 160.324 39.2758 160.652C38.9558 160.98 38.5398 161.144 38.0278 161.144C37.5158 161.144 37.0958 160.984 36.7678 160.664C36.4398 160.336 36.2758 159.896 36.2758 159.344ZM38.0158 158.228C37.7438 158.228 37.5278 158.324 37.3678 158.516C37.2078 158.7 37.1278 158.976 37.1278 159.344C37.1278 159.704 37.2078 159.98 37.3678 160.172C37.5278 160.356 37.7438 160.448 38.0158 160.448C38.2878 160.448 38.5038 160.356 38.6638 160.172C38.8238 159.98 38.9038 159.704 38.9038 159.344C38.9038 158.976 38.8238 158.7 38.6638 158.516C38.5038 158.324 38.2878 158.228 38.0158 158.228ZM45.7365 155.324V159.2C45.7365 159.52 45.8045 159.748 45.9405 159.884C46.0765 160.012 46.3125 160.076 46.6485 160.076H47.4525V161H46.4685C45.8605 161 45.4045 160.86 45.1005 160.58C44.7965 160.3 44.6445 159.84 44.6445 159.2V155.324H43.7925V154.424H44.6445V152.768H45.7365V154.424H47.4525V155.324H45.7365ZM48.3676 157.688C48.3676 157.016 48.5036 156.428 48.7756 155.924C49.0476 155.412 49.4196 155.016 49.8916 154.736C50.3716 154.456 50.9036 154.316 51.4876 154.316C52.0636 154.316 52.5636 154.44 52.9876 154.688C53.4116 154.936 53.7276 155.248 53.9356 155.624V154.424H55.0396V161H53.9356V159.776C53.7196 160.16 53.3956 160.48 52.9636 160.736C52.5396 160.984 52.0436 161.108 51.4756 161.108C50.8916 161.108 50.3636 160.964 49.8916 160.676C49.4196 160.388 49.0476 159.984 48.7756 159.464C48.5036 158.944 48.3676 158.352 48.3676 157.688ZM53.9356 157.7C53.9356 157.204 53.8356 156.772 53.6356 156.404C53.4356 156.036 53.1636 155.756 52.8196 155.564C52.4836 155.364 52.1116 155.264 51.7036 155.264C51.2956 155.264 50.9236 155.36 50.5876 155.552C50.2516 155.744 49.9836 156.024 49.7836 156.392C49.5836 156.76 49.4836 157.192 49.4836 157.688C49.4836 158.192 49.5836 158.632 49.7836 159.008C49.9836 159.376 50.2516 159.66 50.5876 159.86C50.9236 160.052 51.2956 160.148 51.7036 160.148C52.1116 160.148 52.4836 160.052 52.8196 159.86C53.1636 159.66 53.4356 159.376 53.6356 159.008C53.8356 158.632 53.9356 158.196 53.9356 157.7ZM57.9769 155.492C58.1689 155.116 58.4409 154.824 58.7929 154.616C59.1529 154.408 59.5889 154.304 60.1009 154.304V155.432H59.8129C58.5889 155.432 57.9769 156.096 57.9769 157.424V161H56.8849V154.424H57.9769V155.492ZM64.0735 154.316C64.6415 154.316 65.1375 154.44 65.5615 154.688C65.9935 154.936 66.3135 155.248 66.5215 155.624V154.424H67.6255V161.144C67.6255 161.744 67.4975 162.276 67.2415 162.74C66.9855 163.212 66.6175 163.58 66.1375 163.844C65.6655 164.108 65.1135 164.24 64.4815 164.24C63.6175 164.24 62.8975 164.036 62.3215 163.628C61.7455 163.22 61.4055 162.664 61.3015 161.96H62.3815C62.5015 162.36 62.7495 162.68 63.1255 162.92C63.5015 163.168 63.9535 163.292 64.4815 163.292C65.0815 163.292 65.5695 163.104 65.9455 162.728C66.3295 162.352 66.5215 161.824 66.5215 161.144V159.764C66.3055 160.148 65.9855 160.468 65.5615 160.724C65.1375 160.98 64.6415 161.108 64.0735 161.108C63.4895 161.108 62.9575 160.964 62.4775 160.676C62.0055 160.388 61.6335 159.984 61.3615 159.464C61.0895 158.944 60.9535 158.352 60.9535 157.688C60.9535 157.016 61.0895 156.428 61.3615 155.924C61.6335 155.412 62.0055 155.016 62.4775 154.736C62.9575 154.456 63.4895 154.316 64.0735 154.316ZM66.5215 157.7C66.5215 157.204 66.4215 156.772 66.2215 156.404C66.0215 156.036 65.7495 155.756 65.4055 155.564C65.0695 155.364 64.6975 155.264 64.2895 155.264C63.8815 155.264 63.5095 155.36 63.1735 155.552C62.8375 155.744 62.5695 156.024 62.3695 156.392C62.1695 156.76 62.0695 157.192 62.0695 157.688C62.0695 158.192 62.1695 158.632 62.3695 159.008C62.5695 159.376 62.8375 159.66 63.1735 159.86C63.5095 160.052 63.8815 160.148 64.2895 160.148C64.6975 160.148 65.0695 160.052 65.4055 159.86C65.7495 159.66 66.0215 159.376 66.2215 159.008C66.4215 158.632 66.5215 158.196 66.5215 157.7ZM75.4709 157.46C75.4709 157.668 75.4589 157.888 75.4349 158.12H70.1789C70.2189 158.768 70.4389 159.276 70.8389 159.644C71.2469 160.004 71.7389 160.184 72.3149 160.184C72.7869 160.184 73.1789 160.076 73.4909 159.86C73.8109 159.636 74.0349 159.34 74.1629 158.972H75.3389C75.1629 159.604 74.8109 160.12 74.2829 160.52C73.7549 160.912 73.0989 161.108 72.3149 161.108C71.6909 161.108 71.1309 160.968 70.6349 160.688C70.1469 160.408 69.7629 160.012 69.4829 159.5C69.2029 158.98 69.0629 158.38 69.0629 157.7C69.0629 157.02 69.1989 156.424 69.4709 155.912C69.7429 155.4 70.1229 155.008 70.6109 154.736C71.1069 154.456 71.6749 154.316 72.3149 154.316C72.9389 154.316 73.4909 154.452 73.9709 154.724C74.4509 154.996 74.8189 155.372 75.0749 155.852C75.3389 156.324 75.4709 156.86 75.4709 157.46ZM74.3429 157.232C74.3429 156.816 74.2509 156.46 74.0669 156.164C73.8829 155.86 73.6309 155.632 73.3109 155.48C72.9989 155.32 72.6509 155.24 72.2669 155.24C71.7149 155.24 71.2429 155.416 70.8509 155.768C70.4669 156.12 70.2469 156.608 70.1909 157.232H74.3429ZM78.2443 155.324V159.2C78.2443 159.52 78.3123 159.748 78.4483 159.884C78.5843 160.012 78.8203 160.076 79.1563 160.076H79.9603V161H78.9763C78.3683 161 77.9123 160.86 77.6083 160.58C77.3043 160.3 77.1523 159.84 77.1523 159.2V155.324H76.3003V154.424H77.1523V152.768H78.2443V154.424H79.9603V155.324H78.2443ZM84.0746 157.688C84.0746 157.016 84.2106 156.428 84.4826 155.924C84.7546 155.412 85.1266 155.016 85.5986 154.736C86.0786 154.456 86.6106 154.316 87.1946 154.316C87.7706 154.316 88.2706 154.44 88.6946 154.688C89.1186 154.936 89.4346 155.248 89.6426 155.624V154.424H90.7466V161H89.6426V159.776C89.4266 160.16 89.1026 160.48 88.6706 160.736C88.2466 160.984 87.7506 161.108 87.1826 161.108C86.5986 161.108 86.0706 160.964 85.5986 160.676C85.1266 160.388 84.7546 159.984 84.4826 159.464C84.2106 158.944 84.0746 158.352 84.0746 157.688ZM89.6426 157.7C89.6426 157.204 89.5426 156.772 89.3426 156.404C89.1426 156.036 88.8706 155.756 88.5266 155.564C88.1906 155.364 87.8186 155.264 87.4106 155.264C87.0026 155.264 86.6306 155.36 86.2946 155.552C85.9586 155.744 85.6906 156.024 85.4906 156.392C85.2906 156.76 85.1906 157.192 85.1906 157.688C85.1906 158.192 85.2906 158.632 85.4906 159.008C85.6906 159.376 85.9586 159.66 86.2946 159.86C86.6306 160.052 87.0026 160.148 87.4106 160.148C87.8186 160.148 88.1906 160.052 88.5266 159.86C88.8706 159.66 89.1426 159.376 89.3426 159.008C89.5426 158.632 89.6426 158.196 89.6426 157.7ZM92.184 157.7C92.184 157.02 92.32 156.428 92.592 155.924C92.864 155.412 93.24 155.016 93.72 154.736C94.208 154.456 94.764 154.316 95.388 154.316C96.196 154.316 96.86 154.512 97.38 154.904C97.908 155.296 98.256 155.84 98.424 156.536H97.248C97.136 156.136 96.916 155.82 96.588 155.588C96.268 155.356 95.868 155.24 95.388 155.24C94.764 155.24 94.26 155.456 93.876 155.888C93.492 156.312 93.3 156.916 93.3 157.7C93.3 158.492 93.492 159.104 93.876 159.536C94.26 159.968 94.764 160.184 95.388 160.184C95.868 160.184 96.268 160.072 96.588 159.848C96.908 159.624 97.128 159.304 97.248 158.888H98.424C98.248 159.56 97.896 160.1 97.368 160.508C96.84 160.908 96.18 161.108 95.388 161.108C94.764 161.108 94.208 160.968 93.72 160.688C93.24 160.408 92.864 160.012 92.592 159.5C92.32 158.988 92.184 158.388 92.184 157.7ZM103.145 154.304C103.641 154.304 104.089 154.412 104.489 154.628C104.889 154.836 105.201 155.152 105.425 155.576C105.657 156 105.773 156.516 105.773 157.124V161H104.693V157.28C104.693 156.624 104.529 156.124 104.201 155.78C103.873 155.428 103.425 155.252 102.857 155.252C102.281 155.252 101.821 155.432 101.477 155.792C101.141 156.152 100.973 156.676 100.973 157.364V161H99.881V152.12H100.973V155.36C101.189 155.024 101.485 154.764 101.861 154.58C102.245 154.396 102.673 154.304 103.145 154.304ZM113.557 157.46C113.557 157.668 113.545 157.888 113.521 158.12H108.265C108.305 158.768 108.525 159.276 108.925 159.644C109.333 160.004 109.825 160.184 110.401 160.184C110.873 160.184 111.265 160.076 111.577 159.86C111.897 159.636 112.121 159.34 112.249 158.972H113.425C113.249 159.604 112.897 160.12 112.369 160.52C111.841 160.912 111.185 161.108 110.401 161.108C109.777 161.108 109.217 160.968 108.721 160.688C108.233 160.408 107.849 160.012 107.569 159.5C107.289 158.98 107.149 158.38 107.149 157.7C107.149 157.02 107.285 156.424 107.557 155.912C107.829 155.4 108.209 155.008 108.697 154.736C109.193 154.456 109.761 154.316 110.401 154.316C111.025 154.316 111.577 154.452 112.057 154.724C112.537 154.996 112.905 155.372 113.161 155.852C113.425 156.324 113.557 156.86 113.557 157.46ZM112.429 157.232C112.429 156.816 112.337 156.46 112.153 156.164C111.969 155.86 111.717 155.632 111.397 155.48C111.085 155.32 110.737 155.24 110.353 155.24C109.801 155.24 109.329 155.416 108.937 155.768C108.553 156.12 108.333 156.608 108.277 157.232H112.429ZM117.446 159.992L119.486 154.424H120.65L118.07 161H116.798L114.218 154.424H115.394L117.446 159.992ZM127.725 157.46C127.725 157.668 127.713 157.888 127.689 158.12H122.433C122.473 158.768 122.693 159.276 123.093 159.644C123.501 160.004 123.993 160.184 124.569 160.184C125.041 160.184 125.433 160.076 125.745 159.86C126.065 159.636 126.289 159.34 126.417 158.972H127.593C127.417 159.604 127.065 160.12 126.537 160.52C126.009 160.912 125.353 161.108 124.569 161.108C123.945 161.108 123.385 160.968 122.889 160.688C122.401 160.408 122.017 160.012 121.737 159.5C121.457 158.98 121.317 158.38 121.317 157.7C121.317 157.02 121.453 156.424 121.725 155.912C121.997 155.4 122.377 155.008 122.865 154.736C123.361 154.456 123.929 154.316 124.569 154.316C125.193 154.316 125.745 154.452 126.225 154.724C126.705 154.996 127.073 155.372 127.329 155.852C127.593 156.324 127.725 156.86 127.725 157.46ZM126.597 157.232C126.597 156.816 126.505 156.46 126.321 156.164C126.137 155.86 125.885 155.632 125.565 155.48C125.253 155.32 124.905 155.24 124.521 155.24C123.969 155.24 123.497 155.416 123.105 155.768C122.721 156.12 122.501 156.608 122.445 157.232H126.597ZM128.758 157.688C128.758 157.016 128.894 156.428 129.166 155.924C129.438 155.412 129.81 155.016 130.282 154.736C130.762 154.456 131.298 154.316 131.89 154.316C132.402 154.316 132.878 154.436 133.318 154.676C133.758 154.908 134.094 155.216 134.326 155.6V152.12H135.43V161H134.326V159.764C134.11 160.156 133.79 160.48 133.366 160.736C132.942 160.984 132.446 161.108 131.878 161.108C131.294 161.108 130.762 160.964 130.282 160.676C129.81 160.388 129.438 159.984 129.166 159.464C128.894 158.944 128.758 158.352 128.758 157.688ZM134.326 157.7C134.326 157.204 134.226 156.772 134.026 156.404C133.826 156.036 133.554 155.756 133.21 155.564C132.874 155.364 132.502 155.264 132.094 155.264C131.686 155.264 131.314 155.36 130.978 155.552C130.642 155.744 130.374 156.024 130.174 156.392C129.974 156.76 129.874 157.192 129.874 157.688C129.874 158.192 129.974 158.632 130.174 159.008C130.374 159.376 130.642 159.66 130.978 159.86C131.314 160.052 131.686 160.148 132.094 160.148C132.502 160.148 132.874 160.052 133.21 159.86C133.554 159.66 133.826 159.376 134.026 159.008C134.226 158.632 134.326 158.196 134.326 157.7Z" fill="#7E7E7E"/>
<circle cx="40" cy="39" r="24" fill="#F1F8FF"/>
<path d="M290 20C290 8.9543 298.954 0 310 0H536C547.046 0 556 8.95431 556 20V162C556 173.046 547.046 182 536 182H310C298.954 182 290 173.046 290 162V20Z" fill="white"/>
<path d="M290.5 20C290.5 9.23045 299.23 0.5 310 0.5H536C546.77 0.5 555.5 9.23045 555.5 20V162C555.5 172.77 546.77 181.5 536 181.5H310C299.23 181.5 290.5 172.77 290.5 162V20Z" stroke="#DADADF" stroke-opacity="0.666667"/>
<path d="M318.371 82.88L314.195 94H312.083L307.891 82.88H309.843L313.139 92.128L316.451 82.88H318.371ZM319.288 89.552C319.288 88.6667 319.469 87.8827 319.832 87.2C320.205 86.5173 320.707 85.9893 321.336 85.616C321.976 85.232 322.68 85.04 323.448 85.04C324.141 85.04 324.744 85.1787 325.256 85.456C325.779 85.7227 326.195 86.0587 326.504 86.464V85.184H328.344V94H326.504V92.688C326.195 93.104 325.773 93.4507 325.24 93.728C324.707 94.0053 324.099 94.144 323.416 94.144C322.659 94.144 321.965 93.952 321.336 93.568C320.707 93.1733 320.205 92.6293 319.832 91.936C319.469 91.232 319.288 90.4373 319.288 89.552ZM326.504 89.584C326.504 88.976 326.376 88.448 326.12 88C325.875 87.552 325.549 87.2107 325.144 86.976C324.739 86.7413 324.301 86.624 323.832 86.624C323.363 86.624 322.925 86.7413 322.52 86.976C322.115 87.2 321.784 87.536 321.528 87.984C321.283 88.4213 321.16 88.944 321.16 89.552C321.16 90.16 321.283 90.6933 321.528 91.152C321.784 91.6107 322.115 91.9627 322.52 92.208C322.936 92.4427 323.373 92.56 323.832 92.56C324.301 92.56 324.739 92.4427 325.144 92.208C325.549 91.9733 325.875 91.632 326.12 91.184C326.376 90.7253 326.504 90.192 326.504 89.584ZM330.132 89.584C330.132 88.6773 330.313 87.8827 330.676 87.2C331.049 86.5067 331.561 85.9733 332.212 85.6C332.862 85.2267 333.609 85.04 334.452 85.04C335.518 85.04 336.398 85.296 337.092 85.808C337.796 86.3093 338.27 87.0293 338.516 87.968H336.548C336.388 87.5307 336.132 87.1893 335.78 86.944C335.428 86.6987 334.985 86.576 334.452 86.576C333.705 86.576 333.108 86.8427 332.66 87.376C332.222 87.8987 332.004 88.6347 332.004 89.584C332.004 90.5333 332.222 91.2747 332.66 91.808C333.108 92.3413 333.705 92.608 334.452 92.608C335.508 92.608 336.206 92.144 336.548 91.216H338.516C338.26 92.112 337.78 92.8267 337.076 93.36C336.372 93.8827 335.497 94.144 334.452 94.144C333.609 94.144 332.862 93.9573 332.212 93.584C331.561 93.2 331.049 92.6667 330.676 91.984C330.313 91.2907 330.132 90.4907 330.132 89.584ZM339.726 89.552C339.726 88.6667 339.907 87.8827 340.27 87.2C340.643 86.5173 341.144 85.9893 341.774 85.616C342.414 85.232 343.118 85.04 343.886 85.04C344.579 85.04 345.182 85.1787 345.694 85.456C346.216 85.7227 346.632 86.0587 346.942 86.464V85.184H348.782V94H346.942V92.688C346.632 93.104 346.211 93.4507 345.678 93.728C345.144 94.0053 344.536 94.144 343.854 94.144C343.096 94.144 342.403 93.952 341.774 93.568C341.144 93.1733 340.643 92.6293 340.27 91.936C339.907 91.232 339.726 90.4373 339.726 89.552ZM346.942 89.584C346.942 88.976 346.814 88.448 346.558 88C346.312 87.552 345.987 87.2107 345.582 86.976C345.176 86.7413 344.739 86.624 344.27 86.624C343.8 86.624 343.363 86.7413 342.958 86.976C342.552 87.2 342.222 87.536 341.966 87.984C341.72 88.4213 341.598 88.944 341.598 89.552C341.598 90.16 341.72 90.6933 341.966 91.152C342.222 91.6107 342.552 91.9627 342.958 92.208C343.374 92.4427 343.811 92.56 344.27 92.56C344.739 92.56 345.176 92.4427 345.582 92.208C345.987 91.9733 346.312 91.632 346.558 91.184C346.814 90.7253 346.942 90.192 346.942 89.584ZM353.305 86.672V91.552C353.305 91.8827 353.38 92.1227 353.529 92.272C353.689 92.4107 353.956 92.48 354.329 92.48H355.449V94H354.009C353.188 94 352.559 93.808 352.121 93.424C351.684 93.04 351.465 92.416 351.465 91.552V86.672H350.425V85.184H351.465V82.992H353.305V85.184H355.449V86.672H353.305ZM358.058 84.016C357.728 84.016 357.45 83.904 357.226 83.68C357.002 83.456 356.89 83.1787 356.89 82.848C356.89 82.5173 357.002 82.24 357.226 82.016C357.45 81.792 357.728 81.68 358.058 81.68C358.378 81.68 358.65 81.792 358.874 82.016C359.098 82.24 359.21 82.5173 359.21 82.848C359.21 83.1787 359.098 83.456 358.874 83.68C358.65 83.904 358.378 84.016 358.058 84.016ZM358.954 85.184V94H357.13V85.184H358.954ZM365.173 94.144C364.341 94.144 363.589 93.9573 362.917 93.584C362.245 93.2 361.717 92.6667 361.333 91.984C360.949 91.2907 360.757 90.4907 360.757 89.584C360.757 88.688 360.955 87.8933 361.349 87.2C361.744 86.5067 362.283 85.9733 362.965 85.6C363.648 85.2267 364.411 85.04 365.253 85.04C366.096 85.04 366.859 85.2267 367.541 85.6C368.224 85.9733 368.763 86.5067 369.157 87.2C369.552 87.8933 369.749 88.688 369.749 89.584C369.749 90.48 369.547 91.2747 369.141 91.968C368.736 92.6613 368.181 93.2 367.477 93.584C366.784 93.9573 366.016 94.144 365.173 94.144ZM365.173 92.56C365.643 92.56 366.08 92.448 366.485 92.224C366.901 92 367.237 91.664 367.493 91.216C367.749 90.768 367.877 90.224 367.877 89.584C367.877 88.944 367.755 88.4053 367.509 87.968C367.264 87.52 366.939 87.184 366.533 86.96C366.128 86.736 365.691 86.624 365.221 86.624C364.752 86.624 364.315 86.736 363.909 86.96C363.515 87.184 363.2 87.52 362.965 87.968C362.731 88.4053 362.613 88.944 362.613 89.584C362.613 90.5333 362.853 91.2693 363.333 91.792C363.824 92.304 364.437 92.56 365.173 92.56ZM376 85.04C376.694 85.04 377.312 85.184 377.856 85.472C378.411 85.76 378.843 86.1867 379.152 86.752C379.462 87.3173 379.616 88 379.616 88.8V94H377.808V89.072C377.808 88.2827 377.611 87.68 377.216 87.264C376.822 86.8373 376.283 86.624 375.6 86.624C374.918 86.624 374.374 86.8373 373.968 87.264C373.574 87.68 373.376 88.2827 373.376 89.072V94H371.552V85.184H373.376V86.192C373.675 85.8293 374.054 85.5467 374.512 85.344C374.982 85.1413 375.478 85.04 376 85.04Z" fill="#2F2F2F"/>
<path d="M318.927 121.98C318.927 122.673 318.747 123.327 318.387 123.94C318.04 124.54 317.52 125.04 316.827 125.44C316.147 125.827 315.34 126.053 314.407 126.12V127.74H313.127V126.1C311.793 125.98 310.72 125.58 309.907 124.9C309.093 124.207 308.673 123.273 308.647 122.1H311.647C311.727 123.06 312.22 123.64 313.127 123.84V120.02C312.167 119.78 311.393 119.54 310.807 119.3C310.22 119.06 309.713 118.673 309.287 118.14C308.86 117.607 308.647 116.88 308.647 115.96C308.647 114.8 309.06 113.853 309.887 113.12C310.727 112.387 311.807 111.967 313.127 111.86V110.24H314.407V111.86C315.687 111.967 316.707 112.353 317.467 113.02C318.24 113.687 318.673 114.607 318.767 115.78H315.747C315.707 115.393 315.567 115.06 315.327 114.78C315.1 114.487 314.793 114.28 314.407 114.16V117.94C315.407 118.193 316.193 118.44 316.767 118.68C317.353 118.907 317.86 119.287 318.287 119.82C318.713 120.34 318.927 121.06 318.927 121.98ZM311.567 115.82C311.567 116.26 311.7 116.62 311.967 116.9C312.233 117.167 312.62 117.387 313.127 117.56V114.1C312.647 114.167 312.267 114.347 311.987 114.64C311.707 114.933 311.567 115.327 311.567 115.82ZM314.407 123.88C314.913 123.787 315.307 123.58 315.587 123.26C315.88 122.94 316.027 122.553 316.027 122.1C316.027 121.66 315.887 121.307 315.607 121.04C315.327 120.773 314.927 120.553 314.407 120.38V123.88ZM322.613 122.84C323.893 121.773 324.913 120.887 325.673 120.18C326.433 119.46 327.066 118.713 327.573 117.94C328.079 117.167 328.333 116.407 328.333 115.66C328.333 114.98 328.173 114.447 327.853 114.06C327.533 113.673 327.039 113.48 326.373 113.48C325.706 113.48 325.193 113.707 324.833 114.16C324.473 114.6 324.286 115.207 324.273 115.98H321.553C321.606 114.38 322.079 113.167 322.973 112.34C323.879 111.513 325.026 111.1 326.413 111.1C327.933 111.1 329.099 111.507 329.913 112.32C330.726 113.12 331.133 114.18 331.133 115.5C331.133 116.54 330.853 117.533 330.293 118.48C329.733 119.427 329.093 120.253 328.373 120.96C327.653 121.653 326.713 122.493 325.553 123.48H331.453V125.8H321.573V123.72L322.613 122.84ZM342.497 113.54L337.177 126H334.337L339.697 113.86H332.857V111.46H342.497V113.54ZM347.554 123.06L345.214 128.68H343.414L344.714 123.06H347.554ZM349.252 118.52C349.252 116.213 349.665 114.407 350.492 113.1C351.332 111.793 352.719 111.14 354.652 111.14C356.585 111.14 357.965 111.793 358.792 113.1C359.632 114.407 360.052 116.213 360.052 118.52C360.052 120.84 359.632 122.66 358.792 123.98C357.965 125.3 356.585 125.96 354.652 125.96C352.719 125.96 351.332 125.3 350.492 123.98C349.665 122.66 349.252 120.84 349.252 118.52ZM357.292 118.52C357.292 117.533 357.225 116.707 357.092 116.04C356.972 115.36 356.719 114.807 356.332 114.38C355.959 113.953 355.399 113.74 354.652 113.74C353.905 113.74 353.339 113.953 352.952 114.38C352.579 114.807 352.325 115.36 352.192 116.04C352.072 116.707 352.012 117.533 352.012 118.52C352.012 119.533 352.072 120.387 352.192 121.08C352.312 121.76 352.565 122.313 352.952 122.74C353.339 123.153 353.905 123.36 354.652 123.36C355.399 123.36 355.965 123.153 356.352 122.74C356.739 122.313 356.992 121.76 357.112 121.08C357.232 120.387 357.292 119.533 357.292 118.52ZM362.182 118.52C362.182 116.213 362.595 114.407 363.422 113.1C364.262 111.793 365.648 111.14 367.582 111.14C369.515 111.14 370.895 111.793 371.722 113.1C372.562 114.407 372.982 116.213 372.982 118.52C372.982 120.84 372.562 122.66 371.722 123.98C370.895 125.3 369.515 125.96 367.582 125.96C365.648 125.96 364.262 125.3 363.422 123.98C362.595 122.66 362.182 120.84 362.182 118.52ZM370.222 118.52C370.222 117.533 370.155 116.707 370.022 116.04C369.902 115.36 369.648 114.807 369.262 114.38C368.888 113.953 368.328 113.74 367.582 113.74C366.835 113.74 366.268 113.953 365.882 114.38C365.508 114.807 365.255 115.36 365.122 116.04C365.002 116.707 364.942 117.533 364.942 118.52C364.942 119.533 365.002 120.387 365.122 121.08C365.242 121.76 365.495 122.313 365.882 122.74C366.268 123.153 366.835 123.36 367.582 123.36C368.328 123.36 368.895 123.153 369.282 122.74C369.668 122.313 369.922 121.76 370.042 121.08C370.162 120.387 370.222 119.533 370.222 118.52ZM375.112 118.52C375.112 116.213 375.525 114.407 376.352 113.1C377.192 111.793 378.578 111.14 380.512 111.14C382.445 111.14 383.825 111.793 384.652 113.1C385.492 114.407 385.912 116.213 385.912 118.52C385.912 120.84 385.492 122.66 384.652 123.98C383.825 125.3 382.445 125.96 380.512 125.96C378.578 125.96 377.192 125.3 376.352 123.98C375.525 122.66 375.112 120.84 375.112 118.52ZM383.152 118.52C383.152 117.533 383.085 116.707 382.952 116.04C382.832 115.36 382.578 114.807 382.192 114.38C381.818 113.953 381.258 113.74 380.512 113.74C379.765 113.74 379.198 113.953 378.812 114.38C378.438 114.807 378.185 115.36 378.052 116.04C377.932 116.707 377.872 117.533 377.872 118.52C377.872 119.533 377.932 120.387 378.052 121.08C378.172 121.76 378.425 122.313 378.812 122.74C379.198 123.153 379.765 123.36 380.512 123.36C381.258 123.36 381.825 123.153 382.212 122.74C382.598 122.313 382.852 121.76 382.972 121.08C383.092 120.387 383.152 119.533 383.152 118.52Z" fill="#2F2F2F"/>
<rect x="307.587" y="138" width="210" height="6" rx="3" fill="#EBF1F5"/>
<rect x="307.587" y="138" width="25.2" height="6" rx="3" fill="#0AC497"/>
<path d="M308.043 153.32V152.324H310.299V161H309.195V153.32H308.043ZM312.042 160.124C313.058 159.308 313.854 158.64 314.43 158.12C315.006 157.592 315.49 157.044 315.882 156.476C316.282 155.9 316.482 155.336 316.482 154.784C316.482 154.264 316.354 153.856 316.098 153.56C315.85 153.256 315.446 153.104 314.886 153.104C314.342 153.104 313.918 153.276 313.614 153.62C313.318 153.956 313.158 154.408 313.134 154.976H312.078C312.11 154.08 312.382 153.388 312.894 152.9C313.406 152.412 314.066 152.168 314.874 152.168C315.698 152.168 316.35 152.396 316.83 152.852C317.318 153.308 317.562 153.936 317.562 154.736C317.562 155.4 317.362 156.048 316.962 156.68C316.57 157.304 316.122 157.856 315.618 158.336C315.114 158.808 314.47 159.36 313.686 159.992H317.814V160.904H312.042V160.124ZM318.837 154.28C318.837 153.736 319.001 153.304 319.329 152.984C319.657 152.656 320.077 152.492 320.589 152.492C321.101 152.492 321.521 152.656 321.849 152.984C322.177 153.304 322.341 153.736 322.341 154.28C322.341 154.832 322.177 155.272 321.849 155.6C321.521 155.92 321.101 156.08 320.589 156.08C320.077 156.08 319.657 155.92 319.329 155.6C319.001 155.272 318.837 154.832 318.837 154.28ZM325.845 152.624L320.985 161H319.905L324.765 152.624H325.845ZM320.589 153.164C320.317 153.164 320.101 153.26 319.941 153.452C319.789 153.636 319.713 153.912 319.713 154.28C319.713 154.648 319.789 154.928 319.941 155.12C320.101 155.312 320.317 155.408 320.589 155.408C320.861 155.408 321.077 155.312 321.237 155.12C321.397 154.92 321.477 154.64 321.477 154.28C321.477 153.912 321.397 153.636 321.237 153.452C321.077 153.26 320.861 153.164 320.589 153.164ZM323.433 159.344C323.433 158.792 323.597 158.356 323.925 158.036C324.253 157.708 324.673 157.544 325.185 157.544C325.697 157.544 326.113 157.708 326.433 158.036C326.761 158.356 326.925 158.792 326.925 159.344C326.925 159.888 326.761 160.324 326.433 160.652C326.113 160.98 325.697 161.144 325.185 161.144C324.673 161.144 324.253 160.984 323.925 160.664C323.597 160.336 323.433 159.896 323.433 159.344ZM325.173 158.228C324.901 158.228 324.685 158.324 324.525 158.516C324.365 158.7 324.285 158.976 324.285 159.344C324.285 159.704 324.365 159.98 324.525 160.172C324.685 160.356 324.901 160.448 325.173 160.448C325.445 160.448 325.661 160.356 325.821 160.172C325.981 159.98 326.061 159.704 326.061 159.344C326.061 158.976 325.981 158.7 325.821 158.516C325.661 158.324 325.445 158.228 325.173 158.228ZM332.893 155.324V159.2C332.893 159.52 332.961 159.748 333.097 159.884C333.233 160.012 333.469 160.076 333.805 160.076H334.609V161H333.625C333.017 161 332.561 160.86 332.257 160.58C331.953 160.3 331.801 159.84 331.801 159.2V155.324H330.949V154.424H331.801V152.768H332.893V154.424H334.609V155.324H332.893ZM335.525 157.688C335.525 157.016 335.661 156.428 335.933 155.924C336.205 155.412 336.577 155.016 337.049 154.736C337.529 154.456 338.061 154.316 338.645 154.316C339.221 154.316 339.721 154.44 340.145 154.688C340.569 154.936 340.885 155.248 341.093 155.624V154.424H342.197V161H341.093V159.776C340.877 160.16 340.553 160.48 340.121 160.736C339.697 160.984 339.201 161.108 338.633 161.108C338.049 161.108 337.521 160.964 337.049 160.676C336.577 160.388 336.205 159.984 335.933 159.464C335.661 158.944 335.525 158.352 335.525 157.688ZM341.093 157.7C341.093 157.204 340.993 156.772 340.793 156.404C340.593 156.036 340.321 155.756 339.977 155.564C339.641 155.364 339.269 155.264 338.861 155.264C338.453 155.264 338.081 155.36 337.745 155.552C337.409 155.744 337.141 156.024 336.941 156.392C336.741 156.76 336.641 157.192 336.641 157.688C336.641 158.192 336.741 158.632 336.941 159.008C337.141 159.376 337.409 159.66 337.745 159.86C338.081 160.052 338.453 160.148 338.861 160.148C339.269 160.148 339.641 160.052 339.977 159.86C340.321 159.66 340.593 159.376 340.793 159.008C340.993 158.632 341.093 158.196 341.093 157.7ZM345.134 155.492C345.326 155.116 345.598 154.824 345.95 154.616C346.31 154.408 346.746 154.304 347.258 154.304V155.432H346.97C345.746 155.432 345.134 156.096 345.134 157.424V161H344.042V154.424H345.134V155.492ZM351.23 154.316C351.798 154.316 352.294 154.44 352.718 154.688C353.15 154.936 353.47 155.248 353.678 155.624V154.424H354.782V161.144C354.782 161.744 354.654 162.276 354.398 162.74C354.142 163.212 353.774 163.58 353.294 163.844C352.822 164.108 352.27 164.24 351.638 164.24C350.774 164.24 350.054 164.036 349.478 163.628C348.902 163.22 348.562 162.664 348.458 161.96H349.538C349.658 162.36 349.906 162.68 350.282 162.92C350.658 163.168 351.11 163.292 351.638 163.292C352.238 163.292 352.726 163.104 353.102 162.728C353.486 162.352 353.678 161.824 353.678 161.144V159.764C353.462 160.148 353.142 160.468 352.718 160.724C352.294 160.98 351.798 161.108 351.23 161.108C350.646 161.108 350.114 160.964 349.634 160.676C349.162 160.388 348.79 159.984 348.518 159.464C348.246 158.944 348.11 158.352 348.11 157.688C348.11 157.016 348.246 156.428 348.518 155.924C348.79 155.412 349.162 155.016 349.634 154.736C350.114 154.456 350.646 154.316 351.23 154.316ZM353.678 157.7C353.678 157.204 353.578 156.772 353.378 156.404C353.178 156.036 352.906 155.756 352.562 155.564C352.226 155.364 351.854 155.264 351.446 155.264C351.038 155.264 350.666 155.36 350.33 155.552C349.994 155.744 349.726 156.024 349.526 156.392C349.326 156.76 349.226 157.192 349.226 157.688C349.226 158.192 349.326 158.632 349.526 159.008C349.726 159.376 349.994 159.66 350.33 159.86C350.666 160.052 351.038 160.148 351.446 160.148C351.854 160.148 352.226 160.052 352.562 159.86C352.906 159.66 353.178 159.376 353.378 159.008C353.578 158.632 353.678 158.196 353.678 157.7ZM362.628 157.46C362.628 157.668 362.616 157.888 362.592 158.12H357.336C357.376 158.768 357.596 159.276 357.996 159.644C358.404 160.004 358.896 160.184 359.472 160.184C359.944 160.184 360.336 160.076 360.648 159.86C360.968 159.636 361.192 159.34 361.32 158.972H362.496C362.32 159.604 361.968 160.12 361.44 160.52C360.912 160.912 360.256 161.108 359.472 161.108C358.848 161.108 358.288 160.968 357.792 160.688C357.304 160.408 356.92 160.012 356.64 159.5C356.36 158.98 356.22 158.38 356.22 157.7C356.22 157.02 356.356 156.424 356.628 155.912C356.9 155.4 357.28 155.008 357.768 154.736C358.264 154.456 358.832 154.316 359.472 154.316C360.096 154.316 360.648 154.452 361.128 154.724C361.608 154.996 361.976 155.372 362.232 155.852C362.496 156.324 362.628 156.86 362.628 157.46ZM361.5 157.232C361.5 156.816 361.408 156.46 361.224 156.164C361.04 155.86 360.788 155.632 360.468 155.48C360.156 155.32 359.808 155.24 359.424 155.24C358.872 155.24 358.4 155.416 358.008 155.768C357.624 156.12 357.404 156.608 357.348 157.232H361.5ZM365.401 155.324V159.2C365.401 159.52 365.469 159.748 365.605 159.884C365.741 160.012 365.977 160.076 366.313 160.076H367.117V161H366.133C365.525 161 365.069 160.86 364.765 160.58C364.461 160.3 364.309 159.84 364.309 159.2V155.324H363.457V154.424H364.309V152.768H365.401V154.424H367.117V155.324H365.401ZM371.232 157.688C371.232 157.016 371.368 156.428 371.64 155.924C371.912 155.412 372.284 155.016 372.756 154.736C373.236 154.456 373.768 154.316 374.352 154.316C374.928 154.316 375.428 154.44 375.852 154.688C376.276 154.936 376.592 155.248 376.8 155.624V154.424H377.904V161H376.8V159.776C376.584 160.16 376.26 160.48 375.828 160.736C375.404 160.984 374.908 161.108 374.34 161.108C373.756 161.108 373.228 160.964 372.756 160.676C372.284 160.388 371.912 159.984 371.64 159.464C371.368 158.944 371.232 158.352 371.232 157.688ZM376.8 157.7C376.8 157.204 376.7 156.772 376.5 156.404C376.3 156.036 376.028 155.756 375.684 155.564C375.348 155.364 374.976 155.264 374.568 155.264C374.16 155.264 373.788 155.36 373.452 155.552C373.116 155.744 372.848 156.024 372.648 156.392C372.448 156.76 372.348 157.192 372.348 157.688C372.348 158.192 372.448 158.632 372.648 159.008C372.848 159.376 373.116 159.66 373.452 159.86C373.788 160.052 374.16 160.148 374.568 160.148C374.976 160.148 375.348 160.052 375.684 159.86C376.028 159.66 376.3 159.376 376.5 159.008C376.7 158.632 376.8 158.196 376.8 157.7ZM379.341 157.7C379.341 157.02 379.477 156.428 379.749 155.924C380.021 155.412 380.397 155.016 380.877 154.736C381.365 154.456 381.921 154.316 382.545 154.316C383.353 154.316 384.017 154.512 384.537 154.904C385.065 155.296 385.413 155.84 385.581 156.536H384.405C384.293 156.136 384.073 155.82 383.745 155.588C383.425 155.356 383.025 155.24 382.545 155.24C381.921 155.24 381.417 155.456 381.033 155.888C380.649 156.312 380.457 156.916 380.457 157.7C380.457 158.492 380.649 159.104 381.033 159.536C381.417 159.968 381.921 160.184 382.545 160.184C383.025 160.184 383.425 160.072 383.745 159.848C384.065 159.624 384.285 159.304 384.405 158.888H385.581C385.405 159.56 385.053 160.1 384.525 160.508C383.997 160.908 383.337 161.108 382.545 161.108C381.921 161.108 381.365 160.968 380.877 160.688C380.397 160.408 380.021 160.012 379.749 159.5C379.477 158.988 379.341 158.388 379.341 157.7ZM390.302 154.304C390.798 154.304 391.246 154.412 391.646 154.628C392.046 154.836 392.358 155.152 392.582 155.576C392.814 156 392.93 156.516 392.93 157.124V161H391.85V157.28C391.85 156.624 391.686 156.124 391.358 155.78C391.03 155.428 390.582 155.252 390.014 155.252C389.438 155.252 388.978 155.432 388.634 155.792C388.298 156.152 388.13 156.676 388.13 157.364V161H387.038V152.12H388.13V155.36C388.346 155.024 388.642 154.764 389.018 154.58C389.402 154.396 389.83 154.304 390.302 154.304ZM400.714 157.46C400.714 157.668 400.702 157.888 400.678 158.12H395.422C395.462 158.768 395.682 159.276 396.082 159.644C396.49 160.004 396.982 160.184 397.558 160.184C398.03 160.184 398.422 160.076 398.734 159.86C399.054 159.636 399.278 159.34 399.406 158.972H400.582C400.406 159.604 400.054 160.12 399.526 160.52C398.998 160.912 398.342 161.108 397.558 161.108C396.934 161.108 396.374 160.968 395.878 160.688C395.39 160.408 395.006 160.012 394.726 159.5C394.446 158.98 394.306 158.38 394.306 157.7C394.306 157.02 394.442 156.424 394.714 155.912C394.986 155.4 395.366 155.008 395.854 154.736C396.35 154.456 396.918 154.316 397.558 154.316C398.182 154.316 398.734 154.452 399.214 154.724C399.694 154.996 400.062 155.372 400.318 155.852C400.582 156.324 400.714 156.86 400.714 157.46ZM399.586 157.232C399.586 156.816 399.494 156.46 399.31 156.164C399.126 155.86 398.874 155.632 398.554 155.48C398.242 155.32 397.894 155.24 397.51 155.24C396.958 155.24 396.486 155.416 396.094 155.768C395.71 156.12 395.49 156.608 395.434 157.232H399.586ZM404.603 159.992L406.643 154.424H407.807L405.227 161H403.955L401.375 154.424H402.551L404.603 159.992ZM414.882 157.46C414.882 157.668 414.87 157.888 414.846 158.12H409.59C409.63 158.768 409.85 159.276 410.25 159.644C410.658 160.004 411.15 160.184 411.726 160.184C412.198 160.184 412.59 160.076 412.902 159.86C413.222 159.636 413.446 159.34 413.574 158.972H414.75C414.574 159.604 414.222 160.12 413.694 160.52C413.166 160.912 412.51 161.108 411.726 161.108C411.102 161.108 410.542 160.968 410.046 160.688C409.558 160.408 409.174 160.012 408.894 159.5C408.614 158.98 408.474 158.38 408.474 157.7C408.474 157.02 408.61 156.424 408.882 155.912C409.154 155.4 409.534 155.008 410.022 154.736C410.518 154.456 411.086 154.316 411.726 154.316C412.35 154.316 412.902 154.452 413.382 154.724C413.862 154.996 414.23 155.372 414.486 155.852C414.75 156.324 414.882 156.86 414.882 157.46ZM413.754 157.232C413.754 156.816 413.662 156.46 413.478 156.164C413.294 155.86 413.042 155.632 412.722 155.48C412.41 155.32 412.062 155.24 411.678 155.24C411.126 155.24 410.654 155.416 410.262 155.768C409.878 156.12 409.658 156.608 409.602 157.232H413.754ZM415.915 157.688C415.915 157.016 416.051 156.428 416.323 155.924C416.595 155.412 416.967 155.016 417.439 154.736C417.919 154.456 418.455 154.316 419.047 154.316C419.559 154.316 420.035 154.436 420.475 154.676C420.915 154.908 421.251 155.216 421.483 155.6V152.12H422.587V161H421.483V159.764C421.267 160.156 420.947 160.48 420.523 160.736C420.099 160.984 419.603 161.108 419.035 161.108C418.451 161.108 417.919 160.964 417.439 160.676C416.967 160.388 416.595 159.984 416.323 159.464C416.051 158.944 415.915 158.352 415.915 157.688ZM421.483 157.7C421.483 157.204 421.383 156.772 421.183 156.404C420.983 156.036 420.711 155.756 420.367 155.564C420.031 155.364 419.659 155.264 419.251 155.264C418.843 155.264 418.471 155.36 418.135 155.552C417.799 155.744 417.531 156.024 417.331 156.392C417.131 156.76 417.031 157.192 417.031 157.688C417.031 158.192 417.131 158.632 417.331 159.008C417.531 159.376 417.799 159.66 418.135 159.86C418.471 160.052 418.843 160.148 419.251 160.148C419.659 160.148 420.031 160.052 420.367 159.86C420.711 159.66 420.983 159.376 421.183 159.008C421.383 158.632 421.483 158.196 421.483 157.7Z" fill="#7E7E7E"/>
<ellipse cx="333.967" cy="39" rx="26.3802" ry="24" fill="#F1F8FF"/>
</svg>
