<svg width="275" height="182" viewBox="0 0 275 182" fill="none" xmlns="http://www.w3.org/2000/svg">
<path d="M0 20C0 8.9543 8.9543 0 20 0H255C266.046 0 275 8.95431 275 20V162C275 173.046 266.046 182 255 182H0V20Z" fill="white"/>
<path d="M20 0.5H255C265.77 0.5 274.5 9.23045 274.5 20V162C274.5 172.77 265.77 181.5 255 181.5H0.5V20C0.5 9.23045 9.23045 0.5 20 0.5Z" stroke="#DADADF" stroke-opacity="0.666667"/>
<path d="M19.3195 23.0537C19.3195 22.2377 19.5035 21.5057 19.8715 20.8577C20.2395 20.2017 20.7395 19.6897 21.3715 19.3217C22.0115 18.9537 22.7195 18.7697 23.4955 18.7697C24.4075 18.7697 25.2035 18.9897 25.8835 19.4297C26.5635 19.8697 27.0595 20.4937 27.3715 21.3017H26.0635C25.8315 20.7977 25.4955 20.4097 25.0555 20.1377C24.6235 19.8657 24.1035 19.7297 23.4955 19.7297C22.9115 19.7297 22.3875 19.8657 21.9235 20.1377C21.4595 20.4097 21.0955 20.7977 20.8315 21.3017C20.5675 21.7977 20.4355 22.3817 20.4355 23.0537C20.4355 23.7177 20.5675 24.3017 20.8315 24.8057C21.0955 25.3017 21.4595 25.6857 21.9235 25.9577C22.3875 26.2297 22.9115 26.3657 23.4955 26.3657C24.1035 26.3657 24.6235 26.2337 25.0555 25.9697C25.4955 25.6977 25.8315 25.3097 26.0635 24.8057H27.3715C27.0595 25.6057 26.5635 26.2257 25.8835 26.6657C25.2035 27.0977 24.4075 27.3137 23.4955 27.3137C22.7195 27.3137 22.0115 27.1337 21.3715 26.7737C20.7395 26.4057 20.2395 25.8977 19.8715 25.2497C19.5035 24.6017 19.3195 23.8697 19.3195 23.0537ZM30.065 18.8777V24.1697C30.065 24.9137 30.245 25.4657 30.605 25.8257C30.973 26.1857 31.481 26.3657 32.129 26.3657C32.769 26.3657 33.269 26.1857 33.629 25.8257C33.997 25.4657 34.181 24.9137 34.181 24.1697V18.8777H35.273V24.1577C35.273 24.8537 35.133 25.4417 34.853 25.9217C34.573 26.3937 34.193 26.7457 33.713 26.9777C33.241 27.2097 32.709 27.3257 32.117 27.3257C31.525 27.3257 30.989 27.2097 30.509 26.9777C30.037 26.7457 29.661 26.3937 29.381 25.9217C29.109 25.4417 28.973 24.8537 28.973 24.1577V18.8777H30.065ZM41.4987 27.2417L39.5067 23.8217H38.1867V27.2417H37.0947V18.8777H39.7947C40.4267 18.8777 40.9587 18.9857 41.3907 19.2017C41.8307 19.4177 42.1587 19.7097 42.3747 20.0777C42.5907 20.4457 42.6987 20.8657 42.6987 21.3377C42.6987 21.9137 42.5307 22.4217 42.1947 22.8617C41.8667 23.3017 41.3707 23.5937 40.7067 23.7377L42.8067 27.2417H41.4987ZM38.1867 22.9457H39.7947C40.3867 22.9457 40.8307 22.8017 41.1267 22.5137C41.4227 22.2177 41.5707 21.8257 41.5707 21.3377C41.5707 20.8417 41.4227 20.4577 41.1267 20.1857C40.8387 19.9137 40.3947 19.7777 39.7947 19.7777H38.1867V22.9457ZM48.7994 27.2417L46.8074 23.8217H45.4874V27.2417H44.3954V18.8777H47.0954C47.7274 18.8777 48.2594 18.9857 48.6914 19.2017C49.1314 19.4177 49.4594 19.7097 49.6754 20.0777C49.8914 20.4457 49.9994 20.8657 49.9994 21.3377C49.9994 21.9137 49.8314 22.4217 49.4954 22.8617C49.1674 23.3017 48.6714 23.5937 48.0074 23.7377L50.1074 27.2417H48.7994ZM45.4874 22.9457H47.0954C47.6874 22.9457 48.1314 22.8017 48.4274 22.5137C48.7234 22.2177 48.8714 21.8257 48.8714 21.3377C48.8714 20.8417 48.7234 20.4577 48.4274 20.1857C48.1394 19.9137 47.6954 19.7777 47.0954 19.7777H45.4874V22.9457ZM52.7882 19.7657V22.5617H55.8362V23.4617H52.7882V26.3417H56.1962V27.2417H51.6962V18.8657H56.1962V19.7657H52.7882ZM64.4246 27.2417H63.3326L58.9406 20.5817V27.2417H57.8486V18.8657H58.9406L63.3326 25.5137V18.8657H64.4246V27.2417ZM71.4341 18.8777V19.7657H69.1541V27.2417H68.0621V19.7657H65.7701V18.8777H71.4341ZM80.1655 22.9337C80.4695 22.9817 80.7455 23.1057 80.9935 23.3057C81.2495 23.5057 81.4495 23.7537 81.5935 24.0497C81.7455 24.3457 81.8215 24.6617 81.8215 24.9977C81.8215 25.4217 81.7135 25.8057 81.4975 26.1497C81.2815 26.4857 80.9655 26.7537 80.5495 26.9537C80.1415 27.1457 79.6575 27.2417 79.0975 27.2417H75.9775V18.8777H78.9775C79.5455 18.8777 80.0295 18.9737 80.4295 19.1657C80.8295 19.3497 81.1295 19.6017 81.3295 19.9217C81.5295 20.2417 81.6295 20.6017 81.6295 21.0017C81.6295 21.4977 81.4935 21.9097 81.2215 22.2377C80.9575 22.5577 80.6055 22.7897 80.1655 22.9337ZM77.0695 22.4897H78.9055C79.4175 22.4897 79.8135 22.3697 80.0935 22.1297C80.3735 21.8897 80.5135 21.5577 80.5135 21.1337C80.5135 20.7097 80.3735 20.3777 80.0935 20.1377C79.8135 19.8977 79.4095 19.7777 78.8815 19.7777H77.0695V22.4897ZM79.0015 26.3417C79.5455 26.3417 79.9695 26.2137 80.2735 25.9577C80.5775 25.7017 80.7295 25.3457 80.7295 24.8897C80.7295 24.4257 80.5695 24.0617 80.2495 23.7977C79.9295 23.5257 79.5015 23.3897 78.9655 23.3897H77.0695V26.3417H79.0015ZM88.2808 25.3817H84.6328L83.9608 27.2417H82.8088L85.8328 18.9257H87.0928L90.1048 27.2417H88.9528L88.2808 25.3817ZM87.9688 24.4937L86.4568 20.2697L84.9448 24.4937H87.9688ZM92.5148 26.3537H95.4428V27.2417H91.4228V18.8777H92.5148V26.3537ZM101.546 25.3817H97.8985L97.2265 27.2417H96.0745L99.0985 18.9257H100.358L103.37 27.2417H102.218L101.546 25.3817ZM101.234 24.4937L99.7225 20.2697L98.2105 24.4937H101.234ZM111.264 27.2417H110.172L105.78 20.5817V27.2417H104.688V18.8657H105.78L110.172 25.5137V18.8657H111.264V27.2417ZM112.718 23.0537C112.718 22.2377 112.902 21.5057 113.27 20.8577C113.638 20.2017 114.138 19.6897 114.77 19.3217C115.41 18.9537 116.118 18.7697 116.894 18.7697C117.806 18.7697 118.602 18.9897 119.282 19.4297C119.962 19.8697 120.458 20.4937 120.77 21.3017H119.462C119.23 20.7977 118.894 20.4097 118.454 20.1377C118.022 19.8657 117.502 19.7297 116.894 19.7297C116.31 19.7297 115.786 19.8657 115.322 20.1377C114.858 20.4097 114.494 20.7977 114.23 21.3017C113.966 21.7977 113.834 22.3817 113.834 23.0537C113.834 23.7177 113.966 24.3017 114.23 24.8057C114.494 25.3017 114.858 25.6857 115.322 25.9577C115.786 26.2297 116.31 26.3657 116.894 26.3657C117.502 26.3657 118.022 26.2337 118.454 25.9697C118.894 25.6977 119.23 25.3097 119.462 24.8057H120.77C120.458 25.6057 119.962 26.2257 119.282 26.6657C118.602 27.0977 117.806 27.3137 116.894 27.3137C116.118 27.3137 115.41 27.1337 114.77 26.7737C114.138 26.4057 113.638 25.8977 113.27 25.2497C112.902 24.6017 112.718 23.8697 112.718 23.0537ZM123.487 19.7657V22.5617H126.535V23.4617H123.487V26.3417H126.895V27.2417H122.395V18.8657H126.895V19.7657H123.487Z" fill="#7E7E7E"/>
<path d="M30.1435 54.2217C30.1435 54.915 29.9635 55.5684 29.6035 56.1817C29.2568 56.7817 28.7368 57.2817 28.0435 57.6817C27.3635 58.0684 26.5568 58.295 25.6235 58.3617V59.9817H24.3435V58.3417C23.0101 58.2217 21.9368 57.8217 21.1235 57.1417C20.3101 56.4484 19.8901 55.515 19.8635 54.3417H22.8635C22.9435 55.3017 23.4368 55.8817 24.3435 56.0817V52.2617C23.3835 52.0217 22.6101 51.7817 22.0235 51.5417C21.4368 51.3017 20.9301 50.915 20.5035 50.3817C20.0768 49.8484 19.8635 49.1217 19.8635 48.2017C19.8635 47.0417 20.2768 46.095 21.1035 45.3617C21.9435 44.6284 23.0235 44.2084 24.3435 44.1017V42.4817H25.6235V44.1017C26.9035 44.2084 27.9235 44.595 28.6835 45.2617C29.4568 45.9284 29.8901 46.8484 29.9835 48.0217H26.9635C26.9235 47.635 26.7835 47.3017 26.5435 47.0217C26.3168 46.7284 26.0101 46.5217 25.6235 46.4017V50.1817C26.6235 50.435 27.4101 50.6817 27.9835 50.9217C28.5701 51.1484 29.0768 51.5284 29.5035 52.0617C29.9301 52.5817 30.1435 53.3017 30.1435 54.2217ZM22.7835 48.0617C22.7835 48.5017 22.9168 48.8617 23.1835 49.1417C23.4501 49.4084 23.8368 49.6284 24.3435 49.8017V46.3417C23.8635 46.4084 23.4835 46.5884 23.2035 46.8817C22.9235 47.175 22.7835 47.5684 22.7835 48.0617ZM25.6235 56.1217C26.1301 56.0284 26.5235 55.8217 26.8035 55.5017C27.0968 55.1817 27.2435 54.795 27.2435 54.3417C27.2435 53.9017 27.1035 53.5484 26.8235 53.2817C26.5435 53.015 26.1435 52.795 25.6235 52.6217V56.1217ZM35.3894 50.5217C34.0561 49.8284 33.3894 48.755 33.3894 47.3017C33.3894 46.5817 33.5694 45.9284 33.9294 45.3417C34.3027 44.7417 34.8561 44.2684 35.5894 43.9217C36.3361 43.5617 37.2427 43.3817 38.3094 43.3817C39.3761 43.3817 40.2761 43.5617 41.0094 43.9217C41.7561 44.2684 42.3094 44.7417 42.6694 45.3417C43.0427 45.9284 43.2294 46.5817 43.2294 47.3017C43.2294 48.035 43.0494 48.6817 42.6894 49.2417C42.3294 49.7884 41.8494 50.215 41.2494 50.5217C41.9827 50.8417 42.5561 51.3084 42.9694 51.9217C43.3827 52.535 43.5894 53.2617 43.5894 54.1017C43.5894 55.0084 43.3561 55.8017 42.8894 56.4817C42.4361 57.1484 41.8094 57.6617 41.0094 58.0217C40.2094 58.3817 39.3094 58.5617 38.3094 58.5617C37.3094 58.5617 36.4094 58.3817 35.6094 58.0217C34.8227 57.6617 34.1961 57.1484 33.7294 56.4817C33.2761 55.8017 33.0494 55.0084 33.0494 54.1017C33.0494 53.2617 33.2561 52.535 33.6694 51.9217C34.0827 51.295 34.6561 50.8284 35.3894 50.5217ZM40.5094 47.7017C40.5094 47.0484 40.3094 46.5417 39.9094 46.1817C39.5227 45.8217 38.9894 45.6417 38.3094 45.6417C37.6427 45.6417 37.1094 45.8217 36.7094 46.1817C36.3227 46.5417 36.1294 47.055 36.1294 47.7217C36.1294 48.3217 36.3294 48.8017 36.7294 49.1617C37.1427 49.5217 37.6694 49.7017 38.3094 49.7017C38.9494 49.7017 39.4761 49.5217 39.8894 49.1617C40.3027 48.7884 40.5094 48.3017 40.5094 47.7017ZM38.3094 51.7417C37.5494 51.7417 36.9294 51.935 36.4494 52.3217C35.9827 52.7084 35.7494 53.2617 35.7494 53.9817C35.7494 54.6484 35.9761 55.195 36.4294 55.6217C36.8961 56.035 37.5227 56.2417 38.3094 56.2417C39.0961 56.2417 39.7161 56.0284 40.1694 55.6017C40.6227 55.175 40.8494 54.635 40.8494 53.9817C40.8494 53.275 40.6161 52.7284 40.1494 52.3417C39.6827 51.9417 39.0694 51.7417 38.3094 51.7417ZM45.461 46.2417V43.6617H50.281V58.2417H47.401V46.2417H45.461ZM56.4271 55.3017L54.0871 60.9217H52.2871L53.5871 55.3017H56.4271ZM57.7852 46.2417V43.6617H62.6052V58.2417H59.7252V46.2417H57.7852ZM66.2513 55.0817C67.5313 54.015 68.5513 53.1284 69.3113 52.4217C70.0713 51.7017 70.7046 50.955 71.2113 50.1817C71.7179 49.4084 71.9713 48.6484 71.9713 47.9017C71.9713 47.2217 71.8113 46.6884 71.4913 46.3017C71.1713 45.915 70.6779 45.7217 70.0113 45.7217C69.3446 45.7217 68.8313 45.9484 68.4713 46.4017C68.1113 46.8417 67.9246 47.4484 67.9113 48.2217H65.1913C65.2446 46.6217 65.7179 45.4084 66.6113 44.5817C67.5179 43.755 68.6646 43.3417 70.0513 43.3417C71.5713 43.3417 72.7379 43.7484 73.5513 44.5617C74.3646 45.3617 74.7713 46.4217 74.7713 47.7417C74.7713 48.7817 74.4913 49.775 73.9313 50.7217C73.3713 51.6684 72.7313 52.495 72.0113 53.2017C71.2913 53.895 70.3513 54.735 69.1913 55.7217H75.0913V58.0417H65.2113V55.9617L66.2513 55.0817ZM80.0957 54.1417C80.2023 54.7284 80.4423 55.1817 80.8157 55.5017C81.2023 55.8084 81.7157 55.9617 82.3557 55.9617C83.1823 55.9617 83.7823 55.6217 84.1557 54.9417C84.529 54.2484 84.7157 53.0884 84.7157 51.4617C84.409 51.8884 83.9757 52.2217 83.4157 52.4617C82.869 52.7017 82.2757 52.8217 81.6357 52.8217C80.7823 52.8217 80.009 52.6484 79.3157 52.3017C78.6357 51.9417 78.0957 51.415 77.6957 50.7217C77.2957 50.015 77.0957 49.1617 77.0957 48.1617C77.0957 46.6817 77.5357 45.5084 78.4157 44.6417C79.2957 43.7617 80.4957 43.3217 82.0157 43.3217C83.909 43.3217 85.2423 43.9284 86.0157 45.1417C86.8023 46.355 87.1957 48.1817 87.1957 50.6217C87.1957 52.355 87.0423 53.775 86.7357 54.8817C86.4423 55.9884 85.929 56.8284 85.1957 57.4017C84.4757 57.975 83.489 58.2617 82.2357 58.2617C81.249 58.2617 80.409 58.075 79.7157 57.7017C79.0223 57.315 78.489 56.815 78.1157 56.2017C77.7557 55.575 77.549 54.8884 77.4957 54.1417H80.0957ZM82.2157 50.5417C82.909 50.5417 83.4557 50.3284 83.8557 49.9017C84.2557 49.475 84.4557 48.9017 84.4557 48.1817C84.4557 47.395 84.2423 46.7884 83.8157 46.3617C83.4023 45.9217 82.8357 45.7017 82.1157 45.7017C81.3957 45.7017 80.8223 45.9284 80.3957 46.3817C79.9823 46.8217 79.7757 47.4084 79.7757 48.1417C79.7757 48.8484 79.9757 49.4284 80.3757 49.8817C80.789 50.3217 81.4023 50.5417 82.2157 50.5417ZM92.7552 55.3017L90.4152 60.9217H88.6152L89.9152 55.3017H92.7552ZM94.4533 50.7617C94.4533 48.455 94.8666 46.6484 95.6933 45.3417C96.5333 44.035 97.92 43.3817 99.8533 43.3817C101.787 43.3817 103.167 44.035 103.993 45.3417C104.833 46.6484 105.253 48.455 105.253 50.7617C105.253 53.0817 104.833 54.9017 103.993 56.2217C103.167 57.5417 101.787 58.2017 99.8533 58.2017C97.92 58.2017 96.5333 57.5417 95.6933 56.2217C94.8666 54.9017 94.4533 53.0817 94.4533 50.7617ZM102.493 50.7617C102.493 49.775 102.427 48.9484 102.293 48.2817C102.173 47.6017 101.92 47.0484 101.533 46.6217C101.16 46.195 100.6 45.9817 99.8533 45.9817C99.1066 45.9817 98.54 46.195 98.1533 46.6217C97.78 47.0484 97.5266 47.6017 97.3933 48.2817C97.2733 48.9484 97.2133 49.775 97.2133 50.7617C97.2133 51.775 97.2733 52.6284 97.3933 53.3217C97.5133 54.0017 97.7666 54.555 98.1533 54.9817C98.54 55.395 99.1066 55.6017 99.8533 55.6017C100.6 55.6017 101.167 55.395 101.553 54.9817C101.94 54.555 102.193 54.0017 102.313 53.3217C102.433 52.6284 102.493 51.775 102.493 50.7617ZM107.383 50.7617C107.383 48.455 107.796 46.6484 108.623 45.3417C109.463 44.035 110.85 43.3817 112.783 43.3817C114.716 43.3817 116.096 44.035 116.923 45.3417C117.763 46.6484 118.183 48.455 118.183 50.7617C118.183 53.0817 117.763 54.9017 116.923 56.2217C116.096 57.5417 114.716 58.2017 112.783 58.2017C110.85 58.2017 109.463 57.5417 108.623 56.2217C107.796 54.9017 107.383 53.0817 107.383 50.7617ZM115.423 50.7617C115.423 49.775 115.356 48.9484 115.223 48.2817C115.103 47.6017 114.85 47.0484 114.463 46.6217C114.09 46.195 113.53 45.9817 112.783 45.9817C112.036 45.9817 111.47 46.195 111.083 46.6217C110.71 47.0484 110.456 47.6017 110.323 48.2817C110.203 48.9484 110.143 49.775 110.143 50.7617C110.143 51.775 110.203 52.6284 110.323 53.3217C110.443 54.0017 110.696 54.555 111.083 54.9817C111.47 55.395 112.036 55.6017 112.783 55.6017C113.53 55.6017 114.096 55.395 114.483 54.9817C114.87 54.555 115.123 54.0017 115.243 53.3217C115.363 52.6284 115.423 51.775 115.423 50.7617Z" fill="#2F2F2F"/>
<circle cx="40.1025" cy="105.901" r="16" fill="#0052B4"/>
<circle cx="104.103" cy="105.901" r="16" fill="#0052B4"/>
<circle cx="168.103" cy="105.901" r="16" fill="#0052B4"/>
<circle cx="232.103" cy="105.901" r="16" fill="#0052B4"/>
</svg>
