<svg width="236" height="182" viewBox="0 0 236 182" fill="none" xmlns="http://www.w3.org/2000/svg">
<path d="M1 20C1 8.9543 9.95431 0 21 0H215C226.046 0 235 8.95431 235 20V162C235 173.046 226.046 182 215 182H21C9.9543 182 1 173.046 1 162V20Z" fill="white"/>
<path d="M1.5 20C1.5 9.23045 10.2304 0.5 21 0.5H215C225.77 0.5 234.5 9.23045 234.5 20V162C234.5 172.77 225.77 181.5 215 181.5H21C10.2304 181.5 1.5 172.77 1.5 162V20Z" stroke="#DADADF" stroke-opacity="0.666667"/>
<path d="M28.34 33.98C28.34 34.6733 28.16 35.3267 27.8 35.94C27.4533 36.54 26.9333 37.04 26.24 37.44C25.56 37.8267 24.7533 38.0533 23.82 38.12V39.74H22.54V38.1C21.2067 37.98 20.1333 37.58 19.32 36.9C18.5067 36.2067 18.0867 35.2733 18.06 34.1H21.06C21.14 35.06 21.6333 35.64 22.54 35.84V32.02C21.58 31.78 20.8067 31.54 20.22 31.3C19.6333 31.06 19.1267 30.6733 18.7 30.14C18.2733 29.6067 18.06 28.88 18.06 27.96C18.06 26.8 18.4733 25.8533 19.3 25.12C20.14 24.3867 21.22 23.9667 22.54 23.86V22.24H23.82V23.86C25.1 23.9667 26.12 24.3533 26.88 25.02C27.6533 25.6867 28.0867 26.6067 28.18 27.78H25.16C25.12 27.3933 24.98 27.06 24.74 26.78C24.5133 26.4867 24.2067 26.28 23.82 26.16V29.94C24.82 30.1933 25.6067 30.44 26.18 30.68C26.7667 30.9067 27.2733 31.2867 27.7 31.82C28.1267 32.34 28.34 33.06 28.34 33.98ZM20.98 27.82C20.98 28.26 21.1133 28.62 21.38 28.9C21.6467 29.1667 22.0333 29.3867 22.54 29.56V26.1C22.06 26.1667 21.68 26.3467 21.4 26.64C21.12 26.9333 20.98 27.3267 20.98 27.82ZM23.82 35.88C24.3267 35.7867 24.72 35.58 25 35.26C25.2933 34.94 25.44 34.5533 25.44 34.1C25.44 33.66 25.3 33.3067 25.02 33.04C24.74 32.7733 24.34 32.5533 23.82 32.38V35.88ZM40.4259 25.54L35.1059 38H32.2659L37.6259 25.86H30.7859V23.46H40.4259V25.54ZM45.483 35.06L43.143 40.68H41.343L42.643 35.06H45.483ZM56.9811 25.84H50.5011V29.26C50.7811 28.9133 51.1811 28.6333 51.7011 28.42C52.2211 28.1933 52.7744 28.08 53.3611 28.08C54.4278 28.08 55.3011 28.3133 55.9811 28.78C56.6611 29.2467 57.1544 29.8467 57.4611 30.58C57.7678 31.3 57.9211 32.0733 57.9211 32.9C57.9211 34.4333 57.4811 35.6667 56.6011 36.6C55.7344 37.5333 54.4944 38 52.8811 38C51.3611 38 50.1478 37.62 49.2411 36.86C48.3344 36.1 47.8211 35.1067 47.7011 33.88H50.4211C50.5411 34.4133 50.8078 34.84 51.2211 35.16C51.6478 35.48 52.1878 35.64 52.8411 35.64C53.6278 35.64 54.2211 35.3933 54.6211 34.9C55.0211 34.4067 55.2211 33.7533 55.2211 32.94C55.2211 32.1133 55.0144 31.4867 54.6011 31.06C54.2011 30.62 53.6078 30.4 52.8211 30.4C52.2611 30.4 51.7944 30.54 51.4211 30.82C51.0478 31.1 50.7811 31.4733 50.6211 31.94H47.9411V23.38H56.9811V25.84ZM60.0522 30.52C60.0522 28.2133 60.4655 26.4067 61.2922 25.1C62.1322 23.7933 63.5189 23.14 65.4522 23.14C67.3855 23.14 68.7655 23.7933 69.5922 25.1C70.4322 26.4067 70.8522 28.2133 70.8522 30.52C70.8522 32.84 70.4322 34.66 69.5922 35.98C68.7655 37.3 67.3855 37.96 65.4522 37.96C63.5189 37.96 62.1322 37.3 61.2922 35.98C60.4655 34.66 60.0522 32.84 60.0522 30.52ZM68.0922 30.52C68.0922 29.5333 68.0255 28.7067 67.8922 28.04C67.7722 27.36 67.5189 26.8067 67.1322 26.38C66.7589 25.9533 66.1989 25.74 65.4522 25.74C64.7055 25.74 64.1389 25.9533 63.7522 26.38C63.3789 26.8067 63.1255 27.36 62.9922 28.04C62.8722 28.7067 62.8122 29.5333 62.8122 30.52C62.8122 31.5333 62.8722 32.3867 62.9922 33.08C63.1122 33.76 63.3655 34.3133 63.7522 34.74C64.1389 35.1533 64.7055 35.36 65.4522 35.36C66.1989 35.36 66.7655 35.1533 67.1522 34.74C67.5389 34.3133 67.7922 33.76 67.9122 33.08C68.0322 32.3867 68.0922 31.5333 68.0922 30.52ZM72.9819 30.52C72.9819 28.2133 73.3952 26.4067 74.2219 25.1C75.0619 23.7933 76.4485 23.14 78.3819 23.14C80.3152 23.14 81.6952 23.7933 82.5219 25.1C83.3619 26.4067 83.7819 28.2133 83.7819 30.52C83.7819 32.84 83.3619 34.66 82.5219 35.98C81.6952 37.3 80.3152 37.96 78.3819 37.96C76.4485 37.96 75.0619 37.3 74.2219 35.98C73.3952 34.66 72.9819 32.84 72.9819 30.52ZM81.0219 30.52C81.0219 29.5333 80.9552 28.7067 80.8219 28.04C80.7019 27.36 80.4485 26.8067 80.0619 26.38C79.6885 25.9533 79.1285 25.74 78.3819 25.74C77.6352 25.74 77.0685 25.9533 76.6819 26.38C76.3085 26.8067 76.0552 27.36 75.9219 28.04C75.8019 28.7067 75.7419 29.5333 75.7419 30.52C75.7419 31.5333 75.8019 32.3867 75.9219 33.08C76.0419 33.76 76.2952 34.3133 76.6819 34.74C77.0685 35.1533 77.6352 35.36 78.3819 35.36C79.1285 35.36 79.6952 35.1533 80.0819 34.74C80.4685 34.3133 80.7219 33.76 80.8419 33.08C80.9619 32.3867 81.0219 31.5333 81.0219 30.52Z" fill="#2F2F2F"/>
<rect x="17" y="50" width="33" height="22" rx="11" fill="#E6FAF5"/>
<path d="M28.164 61.076H25.608V63.668H24.588V61.076H22.044V60.152H24.588V57.548H25.608V60.152H28.164V61.076ZM29.9114 58.508C29.9674 57.772 30.2514 57.196 30.7634 56.78C31.2754 56.364 31.9394 56.156 32.7554 56.156C33.2994 56.156 33.7674 56.256 34.1594 56.456C34.5594 56.648 34.8594 56.912 35.0594 57.248C35.2674 57.584 35.3714 57.964 35.3714 58.388C35.3714 58.884 35.2274 59.312 34.9394 59.672C34.6594 60.032 34.2914 60.264 33.8354 60.368V60.428C34.3554 60.556 34.7674 60.808 35.0714 61.184C35.3754 61.56 35.5274 62.052 35.5274 62.66C35.5274 63.116 35.4234 63.528 35.2154 63.896C35.0074 64.256 34.6954 64.54 34.2794 64.748C33.8634 64.956 33.3634 65.06 32.7794 65.06C31.9314 65.06 31.2354 64.84 30.6914 64.4C30.1474 63.952 29.8434 63.32 29.7794 62.504H30.8354C30.8914 62.984 31.0874 63.376 31.4234 63.68C31.7594 63.984 32.2074 64.136 32.7674 64.136C33.3274 64.136 33.7514 63.992 34.0394 63.704C34.3354 63.408 34.4834 63.028 34.4834 62.564C34.4834 61.964 34.2834 61.532 33.8834 61.268C33.4834 61.004 32.8794 60.872 32.0714 60.872H31.7954V59.96H32.0834C32.8194 59.952 33.3754 59.832 33.7514 59.6C34.1274 59.36 34.3154 58.992 34.3154 58.496C34.3154 58.072 34.1754 57.732 33.8954 57.476C33.6234 57.22 33.2314 57.092 32.7194 57.092C32.2234 57.092 31.8234 57.22 31.5194 57.476C31.2154 57.732 31.0354 58.076 30.9794 58.508H29.9114ZM36.7618 58.28C36.7618 57.736 36.9258 57.304 37.2538 56.984C37.5818 56.656 38.0018 56.492 38.5138 56.492C39.0258 56.492 39.4458 56.656 39.7738 56.984C40.1018 57.304 40.2658 57.736 40.2658 58.28C40.2658 58.832 40.1018 59.272 39.7738 59.6C39.4458 59.92 39.0258 60.08 38.5138 60.08C38.0018 60.08 37.5818 59.92 37.2538 59.6C36.9258 59.272 36.7618 58.832 36.7618 58.28ZM43.7698 56.624L38.9098 65H37.8298L42.6898 56.624H43.7698ZM38.5138 57.164C38.2418 57.164 38.0258 57.26 37.8658 57.452C37.7138 57.636 37.6378 57.912 37.6378 58.28C37.6378 58.648 37.7138 58.928 37.8658 59.12C38.0258 59.312 38.2418 59.408 38.5138 59.408C38.7858 59.408 39.0018 59.312 39.1618 59.12C39.3218 58.92 39.4018 58.64 39.4018 58.28C39.4018 57.912 39.3218 57.636 39.1618 57.452C39.0018 57.26 38.7858 57.164 38.5138 57.164ZM41.3578 63.344C41.3578 62.792 41.5218 62.356 41.8498 62.036C42.1778 61.708 42.5978 61.544 43.1098 61.544C43.6218 61.544 44.0378 61.708 44.3578 62.036C44.6858 62.356 44.8498 62.792 44.8498 63.344C44.8498 63.888 44.6858 64.324 44.3578 64.652C44.0378 64.98 43.6218 65.144 43.1098 65.144C42.5978 65.144 42.1778 64.984 41.8498 64.664C41.5218 64.336 41.3578 63.896 41.3578 63.344ZM43.0978 62.228C42.8258 62.228 42.6098 62.324 42.4498 62.516C42.2898 62.7 42.2098 62.976 42.2098 63.344C42.2098 63.704 42.2898 63.98 42.4498 64.172C42.6098 64.356 42.8258 64.448 43.0978 64.448C43.3698 64.448 43.5858 64.356 43.7458 64.172C43.9058 63.98 43.9858 63.704 43.9858 63.344C43.9858 62.976 43.9058 62.7 43.7458 62.516C43.5858 62.324 43.3698 62.228 43.0978 62.228Z" fill="#4BD4B3"/>
<path d="M62.188 58.304C62.684 58.304 63.132 58.412 63.532 58.628C63.932 58.836 64.244 59.152 64.468 59.576C64.7 60 64.816 60.516 64.816 61.124V65H63.736V61.28C63.736 60.624 63.572 60.124 63.244 59.78C62.916 59.428 62.468 59.252 61.9 59.252C61.324 59.252 60.864 59.432 60.52 59.792C60.184 60.152 60.016 60.676 60.016 61.364V65H58.924V56.12H60.016V59.36C60.232 59.024 60.528 58.764 60.904 58.58C61.288 58.396 61.716 58.304 62.188 58.304ZM67.1638 57.356C66.9558 57.356 66.7798 57.284 66.6358 57.14C66.4918 56.996 66.4198 56.82 66.4198 56.612C66.4198 56.404 66.4918 56.228 66.6358 56.084C66.7798 55.94 66.9558 55.868 67.1638 55.868C67.3638 55.868 67.5318 55.94 67.6678 56.084C67.8118 56.228 67.8838 56.404 67.8838 56.612C67.8838 56.82 67.8118 56.996 67.6678 57.14C67.5318 57.284 67.3638 57.356 67.1638 57.356ZM67.6918 58.424V65H66.5998V58.424H67.6918ZM72.2649 58.316C72.8329 58.316 73.3289 58.44 73.7529 58.688C74.1849 58.936 74.5049 59.248 74.7129 59.624V58.424H75.8169V65.144C75.8169 65.744 75.6889 66.276 75.4329 66.74C75.1769 67.212 74.8089 67.58 74.3289 67.844C73.8569 68.108 73.3049 68.24 72.6729 68.24C71.8089 68.24 71.0889 68.036 70.5129 67.628C69.9369 67.22 69.5969 66.664 69.4929 65.96H70.5729C70.6929 66.36 70.9409 66.68 71.3169 66.92C71.6929 67.168 72.1449 67.292 72.6729 67.292C73.2729 67.292 73.7609 67.104 74.1369 66.728C74.5209 66.352 74.7129 65.824 74.7129 65.144V63.764C74.4969 64.148 74.1769 64.468 73.7529 64.724C73.3289 64.98 72.8329 65.108 72.2649 65.108C71.6809 65.108 71.1489 64.964 70.6689 64.676C70.1969 64.388 69.8249 63.984 69.5529 63.464C69.2809 62.944 69.1449 62.352 69.1449 61.688C69.1449 61.016 69.2809 60.428 69.5529 59.924C69.8249 59.412 70.1969 59.016 70.6689 58.736C71.1489 58.456 71.6809 58.316 72.2649 58.316ZM74.7129 61.7C74.7129 61.204 74.6129 60.772 74.4129 60.404C74.2129 60.036 73.9409 59.756 73.5969 59.564C73.2609 59.364 72.8889 59.264 72.4809 59.264C72.0729 59.264 71.7009 59.36 71.3649 59.552C71.0289 59.744 70.7609 60.024 70.5609 60.392C70.3609 60.76 70.2609 61.192 70.2609 61.688C70.2609 62.192 70.3609 62.632 70.5609 63.008C70.7609 63.376 71.0289 63.66 71.3649 63.86C71.7009 64.052 72.0729 64.148 72.4809 64.148C72.8889 64.148 73.2609 64.052 73.5969 63.86C73.9409 63.66 74.2129 63.376 74.4129 63.008C74.6129 62.632 74.7129 62.196 74.7129 61.7ZM80.9263 58.304C81.4223 58.304 81.8703 58.412 82.2703 58.628C82.6703 58.836 82.9823 59.152 83.2063 59.576C83.4383 60 83.5543 60.516 83.5543 61.124V65H82.4743V61.28C82.4743 60.624 82.3103 60.124 81.9823 59.78C81.6543 59.428 81.2063 59.252 80.6383 59.252C80.0623 59.252 79.6023 59.432 79.2583 59.792C78.9223 60.152 78.7543 60.676 78.7543 61.364V65H77.6623V56.12H78.7543V59.36C78.9703 59.024 79.2663 58.764 79.6423 58.58C80.0263 58.396 80.4543 58.304 80.9263 58.304ZM91.3381 61.46C91.3381 61.668 91.3261 61.888 91.3021 62.12H86.0461C86.0861 62.768 86.3061 63.276 86.7061 63.644C87.1141 64.004 87.6061 64.184 88.1821 64.184C88.6541 64.184 89.0461 64.076 89.3581 63.86C89.6781 63.636 89.9021 63.34 90.0301 62.972H91.2061C91.0301 63.604 90.6781 64.12 90.1501 64.52C89.6221 64.912 88.9661 65.108 88.1821 65.108C87.5581 65.108 86.9981 64.968 86.5021 64.688C86.0141 64.408 85.6301 64.012 85.3501 63.5C85.0701 62.98 84.9301 62.38 84.9301 61.7C84.9301 61.02 85.0661 60.424 85.3381 59.912C85.6101 59.4 85.9901 59.008 86.4781 58.736C86.9741 58.456 87.5421 58.316 88.1821 58.316C88.8061 58.316 89.3581 58.452 89.8381 58.724C90.3181 58.996 90.6861 59.372 90.9421 59.852C91.2061 60.324 91.3381 60.86 91.3381 61.46ZM90.2101 61.232C90.2101 60.816 90.1181 60.46 89.9341 60.164C89.7501 59.86 89.4981 59.632 89.1781 59.48C88.8661 59.32 88.5181 59.24 88.1341 59.24C87.5821 59.24 87.1101 59.416 86.7181 59.768C86.3341 60.12 86.1141 60.608 86.0581 61.232H90.2101ZM93.8715 59.492C94.0635 59.116 94.3355 58.824 94.6875 58.616C95.0475 58.408 95.4835 58.304 95.9955 58.304V59.432H95.7075C94.4835 59.432 93.8715 60.096 93.8715 61.424V65H92.7795V58.424H93.8715V59.492ZM101.787 59.324V63.2C101.787 63.52 101.855 63.748 101.991 63.884C102.127 64.012 102.363 64.076 102.699 64.076H103.503V65H102.519C101.911 65 101.455 64.86 101.151 64.58C100.847 64.3 100.695 63.84 100.695 63.2V59.324H99.8433V58.424H100.695V56.768H101.787V58.424H103.503V59.324H101.787ZM108.09 58.304C108.586 58.304 109.034 58.412 109.434 58.628C109.834 58.836 110.146 59.152 110.37 59.576C110.602 60 110.718 60.516 110.718 61.124V65H109.638V61.28C109.638 60.624 109.474 60.124 109.146 59.78C108.818 59.428 108.37 59.252 107.802 59.252C107.226 59.252 106.766 59.432 106.422 59.792C106.086 60.152 105.918 60.676 105.918 61.364V65H104.826V56.12H105.918V59.36C106.134 59.024 106.43 58.764 106.806 58.58C107.19 58.396 107.618 58.304 108.09 58.304ZM112.094 61.688C112.094 61.016 112.23 60.428 112.502 59.924C112.774 59.412 113.146 59.016 113.618 58.736C114.098 58.456 114.63 58.316 115.214 58.316C115.79 58.316 116.29 58.44 116.714 58.688C117.138 58.936 117.454 59.248 117.662 59.624V58.424H118.766V65H117.662V63.776C117.446 64.16 117.122 64.48 116.69 64.736C116.266 64.984 115.77 65.108 115.202 65.108C114.618 65.108 114.09 64.964 113.618 64.676C113.146 64.388 112.774 63.984 112.502 63.464C112.23 62.944 112.094 62.352 112.094 61.688ZM117.662 61.7C117.662 61.204 117.562 60.772 117.362 60.404C117.162 60.036 116.89 59.756 116.546 59.564C116.21 59.364 115.838 59.264 115.43 59.264C115.022 59.264 114.65 59.36 114.314 59.552C113.978 59.744 113.71 60.024 113.51 60.392C113.31 60.76 113.21 61.192 113.21 61.688C113.21 62.192 113.31 62.632 113.51 63.008C113.71 63.376 113.978 63.66 114.314 63.86C114.65 64.052 115.022 64.148 115.43 64.148C115.838 64.148 116.21 64.052 116.546 63.86C116.89 63.66 117.162 63.376 117.362 63.008C117.562 62.632 117.662 62.196 117.662 61.7ZM123.816 58.304C124.616 58.304 125.264 58.548 125.76 59.036C126.256 59.516 126.504 60.212 126.504 61.124V65H125.424V61.28C125.424 60.624 125.26 60.124 124.932 59.78C124.604 59.428 124.156 59.252 123.588 59.252C123.012 59.252 122.552 59.432 122.208 59.792C121.872 60.152 121.704 60.676 121.704 61.364V65H120.612V58.424H121.704V59.36C121.92 59.024 122.212 58.764 122.58 58.58C122.956 58.396 123.368 58.304 123.816 58.304ZM132.579 56.12V65H131.487V56.12H132.579ZM134.032 61.688C134.032 61.016 134.168 60.428 134.44 59.924C134.712 59.412 135.084 59.016 135.556 58.736C136.036 58.456 136.568 58.316 137.152 58.316C137.728 58.316 138.228 58.44 138.652 58.688C139.076 58.936 139.392 59.248 139.6 59.624V58.424H140.704V65H139.6V63.776C139.384 64.16 139.06 64.48 138.628 64.736C138.204 64.984 137.708 65.108 137.14 65.108C136.556 65.108 136.028 64.964 135.556 64.676C135.084 64.388 134.712 63.984 134.44 63.464C134.168 62.944 134.032 62.352 134.032 61.688ZM139.6 61.7C139.6 61.204 139.5 60.772 139.3 60.404C139.1 60.036 138.828 59.756 138.484 59.564C138.148 59.364 137.776 59.264 137.368 59.264C136.96 59.264 136.588 59.36 136.252 59.552C135.916 59.744 135.648 60.024 135.448 60.392C135.248 60.76 135.148 61.192 135.148 61.688C135.148 62.192 135.248 62.632 135.448 63.008C135.648 63.376 135.916 63.66 136.252 63.86C136.588 64.052 136.96 64.148 137.368 64.148C137.776 64.148 138.148 64.052 138.484 63.86C138.828 63.66 139.1 63.376 139.3 63.008C139.5 62.632 139.6 62.196 139.6 61.7ZM144.877 65.108C144.373 65.108 143.921 65.024 143.521 64.856C143.121 64.68 142.805 64.44 142.573 64.136C142.341 63.824 142.213 63.468 142.189 63.068H143.317C143.349 63.396 143.501 63.664 143.773 63.872C144.053 64.08 144.417 64.184 144.865 64.184C145.281 64.184 145.609 64.092 145.849 63.908C146.089 63.724 146.209 63.492 146.209 63.212C146.209 62.924 146.081 62.712 145.825 62.576C145.569 62.432 145.173 62.292 144.637 62.156C144.149 62.028 143.749 61.9 143.437 61.772C143.133 61.636 142.869 61.44 142.645 61.184C142.429 60.92 142.321 60.576 142.321 60.152C142.321 59.816 142.421 59.508 142.621 59.228C142.821 58.948 143.105 58.728 143.473 58.568C143.841 58.4 144.261 58.316 144.733 58.316C145.461 58.316 146.049 58.5 146.497 58.868C146.945 59.236 147.185 59.74 147.217 60.38H146.125C146.101 60.036 145.961 59.76 145.705 59.552C145.457 59.344 145.121 59.24 144.697 59.24C144.305 59.24 143.993 59.324 143.761 59.492C143.529 59.66 143.413 59.88 143.413 60.152C143.413 60.368 143.481 60.548 143.617 60.692C143.761 60.828 143.937 60.94 144.145 61.028C144.361 61.108 144.657 61.2 145.033 61.304C145.505 61.432 145.889 61.56 146.185 61.688C146.481 61.808 146.733 61.992 146.941 62.24C147.157 62.488 147.269 62.812 147.277 63.212C147.277 63.572 147.177 63.896 146.977 64.184C146.777 64.472 146.493 64.7 146.125 64.868C145.765 65.028 145.349 65.108 144.877 65.108ZM150.151 59.324V63.2C150.151 63.52 150.219 63.748 150.355 63.884C150.491 64.012 150.727 64.076 151.063 64.076H151.867V65H150.883C150.275 65 149.819 64.86 149.515 64.58C149.211 64.3 149.059 63.84 149.059 63.2V59.324H148.207V58.424H149.059V56.768H150.151V58.424H151.867V59.324H150.151ZM164.297 58.304C164.809 58.304 165.265 58.412 165.665 58.628C166.065 58.836 166.381 59.152 166.613 59.576C166.845 60 166.961 60.516 166.961 61.124V65H165.881V61.28C165.881 60.624 165.717 60.124 165.389 59.78C165.069 59.428 164.633 59.252 164.081 59.252C163.513 59.252 163.061 59.436 162.725 59.804C162.389 60.164 162.221 60.688 162.221 61.376V65H161.141V61.28C161.141 60.624 160.977 60.124 160.649 59.78C160.329 59.428 159.893 59.252 159.341 59.252C158.773 59.252 158.321 59.436 157.985 59.804C157.649 60.164 157.481 60.688 157.481 61.376V65H156.389V58.424H157.481V59.372C157.697 59.028 157.985 58.764 158.345 58.58C158.713 58.396 159.117 58.304 159.557 58.304C160.109 58.304 160.597 58.428 161.021 58.676C161.445 58.924 161.761 59.288 161.969 59.768C162.153 59.304 162.457 58.944 162.881 58.688C163.305 58.432 163.777 58.304 164.297 58.304ZM171.62 65.108C171.004 65.108 170.444 64.968 169.94 64.688C169.444 64.408 169.052 64.012 168.764 63.5C168.484 62.98 168.344 62.38 168.344 61.7C168.344 61.028 168.488 60.436 168.776 59.924C169.072 59.404 169.472 59.008 169.976 58.736C170.48 58.456 171.044 58.316 171.668 58.316C172.292 58.316 172.856 58.456 173.36 58.736C173.864 59.008 174.26 59.4 174.548 59.912C174.844 60.424 174.992 61.02 174.992 61.7C174.992 62.38 174.84 62.98 174.536 63.5C174.24 64.012 173.836 64.408 173.324 64.688C172.812 64.968 172.244 65.108 171.62 65.108ZM171.62 64.148C172.012 64.148 172.38 64.056 172.724 63.872C173.068 63.688 173.344 63.412 173.552 63.044C173.768 62.676 173.876 62.228 173.876 61.7C173.876 61.172 173.772 60.724 173.564 60.356C173.356 59.988 173.084 59.716 172.748 59.54C172.412 59.356 172.048 59.264 171.656 59.264C171.256 59.264 170.888 59.356 170.552 59.54C170.224 59.716 169.96 59.988 169.76 60.356C169.56 60.724 169.46 61.172 169.46 61.7C169.46 62.236 169.556 62.688 169.748 63.056C169.948 63.424 170.212 63.7 170.54 63.884C170.868 64.06 171.228 64.148 171.62 64.148ZM179.632 58.304C180.432 58.304 181.08 58.548 181.576 59.036C182.072 59.516 182.32 60.212 182.32 61.124V65H181.24V61.28C181.24 60.624 181.076 60.124 180.748 59.78C180.42 59.428 179.972 59.252 179.404 59.252C178.828 59.252 178.368 59.432 178.024 59.792C177.688 60.152 177.52 60.676 177.52 61.364V65H176.428V58.424H177.52V59.36C177.736 59.024 178.028 58.764 178.396 58.58C178.772 58.396 179.184 58.304 179.632 58.304ZM185.436 59.324V63.2C185.436 63.52 185.504 63.748 185.64 63.884C185.776 64.012 186.012 64.076 186.348 64.076H187.152V65H186.168C185.56 65 185.104 64.86 184.8 64.58C184.496 64.3 184.344 63.84 184.344 63.2V59.324H183.492V58.424H184.344V56.768H185.436V58.424H187.152V59.324H185.436ZM191.739 58.304C192.235 58.304 192.683 58.412 193.083 58.628C193.483 58.836 193.795 59.152 194.019 59.576C194.251 60 194.367 60.516 194.367 61.124V65H193.287V61.28C193.287 60.624 193.123 60.124 192.795 59.78C192.467 59.428 192.019 59.252 191.451 59.252C190.875 59.252 190.415 59.432 190.071 59.792C189.735 60.152 189.567 60.676 189.567 61.364V65H188.475V56.12H189.567V59.36C189.783 59.024 190.079 58.764 190.455 58.58C190.839 58.396 191.267 58.304 191.739 58.304Z" fill="#7E7E7E"/>
<path d="M1 157L32.1185 135.254C37.6966 131.356 44.874 130.562 51.1693 133.146L65.7683 139.139C69.5147 140.677 73.6397 141.041 77.5976 140.183L129.219 129L179.288 112.558C186.004 110.353 193.385 111.857 198.703 116.514L202.864 120.157C208.972 125.506 217.708 126.631 224.972 123.005L235 118" stroke="#266FFF" stroke-width="1.2" stroke-linecap="round"/>
<path d="M1 175L71.0088 125.981C72.4127 124.998 73.937 124.199 75.5443 123.605L98.3007 115.191C102.983 113.46 108.143 113.542 112.767 115.422L167.023 137.474C172.521 139.708 178.726 139.386 183.962 136.595L208.618 123.452C213.904 120.634 220.176 120.334 225.707 122.635L235 126.5" stroke="#AFCFFE" stroke-width="1.2" stroke-linecap="round"/>
</svg>
