<svg xmlns="https://www.w3.org/2000/svg" xmlns:v="https://vecta.io/nano" viewBox="0 0 800 800" fill="#ffffff"></svg>
    <path
        d="M432 291.2c1.8-4.2 3-8.5 3-12.7 0-4.8-1.8-9.1-4.2-12.9 10.6-8.2 17.9-20.5 17.9-35 0-24.8-20.2-45-45-45-2.8 0-5.5 1.1-7.5 3.1-1.5 1.4-14.8 13.4-33.9-1-1.9-1.4-4.1-2.1-6.5-2.1-24.8 0-45 20.2-45 45 0 14.4 7.3 26.7 17.9 35-2.4 3.8-4.2 8.1-4.2 12.9 0 4.2 1.3 8.5 3 12.7-52.7 12.8-92 60-92 116.6v141.1c-20 4.9-34.2 22.8-34.2 43.7 0 24.8 20.2 45 45 45H435V616H246.3c-12.9 0-23.4-10.5-23.4-23.5 0-12.9 10.5-23.4 23.4-23.4 5.9 0 10.8-4.9 10.8-10.8V407.7c0-54.4 44.3-98.7 98.7-98.7h47.9c54.4 0 98.7 44.2 98.7 98.7v24.5H524v-24.5c0-56.5-39.4-103.7-92-116.5zm-99.6-60.7c0-11.8 8.8-21.7 20.3-23.2 21.5 14.1 42.4 9.1 54.6 0 11.4 1.8 19.8 11.5 19.8 23.2 0 12.9-10.5 23.4-23.4 23.4h-47.9c-12.9.1-23.4-10.4-23.4-23.4zm71.3 57h-47.9c-.5 0-.9.1-1.3.1h-4.9c-1.4-.9-3.5-6.4-3.5-9.2 0-1.6 1.3-2.9 2.9-2.9h6.8 47.9 6.8c1.6 0 2.9 1.3 2.9 2.9 0 2.7-2.1 8.3-2.9 9h-6.7c0 .1 0 .1-.1.1zm232.7 205.6h-3.3v-30.6c0-5.8-4.7-10.4-10.4-10.4h-130c-5.8 0-10.4 4.7-10.4 10.4v41.1c0 5.7 4.7 10.4 10.4 10.4h3.3v20.2h-17c-5.8 0-10.4 4.7-10.4 10.4v30.6h-3.3c-5.7 0-10.4 4.7-10.4 10.4v41.1c0 5.7 4.7 10.4 10.4 10.4h130c5.8 0 10.4-4.7 10.4-10.4v-30.6h3.3c5.8 0 10.4-4.7 10.4-10.4V555h17c5.7 0 10.4-4.7 10.4-10.4v-41c0-5.8-4.7-10.5-10.4-10.5zM626 514v20.2h-17-92.2V514h105.9 3.3zm-122.9-20.9v-20.2h109.2v20.2H506.4h-3.3zm95.5 82.1h-3.3-105.9V555h17 92.2v20.2zm-122.9 20.9h3.3 105.9v20.2H475.7v-20.2zM298.4 389.8h45.3c12.6 0 22.4 3.5 28.9 10.1 5.5 5.5 8.5 13.3 8.5 22.7v.3c0 16-8.7 26.1-21.3 30.7L384 489h-25.5l-21.2-31.7h-17.1V489h-21.8v-99.2zm43.9 48.2c10.6 0 16.7-5.7 16.7-14v-.3c0-9.3-6.5-14.2-17.1-14.2h-21.7V438h22.1zm56.1-24.9H420V424c5.2-7.1 12.4-12.3 23.7-12.3 17.7 0 34.5 13.9 34.5 39.2v.3c0 25.4-16.6 39.2-34.5 39.2-11.5 0-18.6-5.2-23.7-11.3v32.6h-21.6v-98.6zm58.2 38.1v-.3c0-12.6-8.5-21-18.5-21-10.1 0-18.4 8.4-18.4 21v.3c0 12.6 8.3 21 18.4 21 10.1-.1 18.5-8.3 18.5-21z">
    </path>
</svg>